<?xml version="1.0" encoding="UTF-8"?>
<svg version="1.1" xmlns="http://www.w3.org/2000/svg" width="1640" height="484">
<path d="M0 0 C3.45486734 0.35977092 6.91170343 0.69953814 10.36849976 1.04019165 C11.37226906 1.13943184 11.37226906 1.13943184 12.39631653 1.24067688 C19.56375451 1.94489588 26.71222745 2.51349527 33.91146851 2.77456665 C35.20826538 2.82741821 36.50506226 2.88026978 37.84115601 2.9347229 C51.21080562 3.29315855 64.41221536 1.63901491 77.67733765 0.13760376 C105.70784219 -3.00887169 105.70784219 -3.00887169 116.83724976 5.0128479 C123.4059343 10.59190012 127.14660285 17.63026965 128.21322632 26.19863892 C128.34769942 28.69062478 128.37931439 31.15422015 128.34896851 33.64956665 C128.33760864 34.96066406 128.33760864 34.96066406 128.32601929 36.29824829 C128.13902358 43.64636052 127.38274507 50.64707616 122.48568726 56.46987915 C116.0381331 62.30100048 109.74627017 61.9132803 101.50521851 61.64956665 C96.91745097 61.80428865 96.91745097 61.80428865 92.91146851 63.77456665 C85.80149494 80.36450498 89.29540959 99.72933551 88.91146851 117.77456665 C120.92146851 117.77456665 152.93146851 117.77456665 185.91146851 117.77456665 C189.72421448 87.58072323 189.72421448 87.58072323 180.91146851 62.77456665 C177.04667821 62.60355823 173.18791657 62.4775757 169.31967163 62.43276978 C162.26098232 62.1961964 156.79546481 60.50267126 151.59896851 55.58706665 C147.47830282 48.7192905 146.37777389 41.81119186 146.47396851 33.89956665 C146.48532837 32.58629395 146.48532837 32.58629395 146.49691772 31.24649048 C146.73181001 22.00425047 148.6798672 14.10590185 155.22006226 7.2706604 C164.43454413 -0.87979354 174.00462712 -1.69728963 185.91146851 -1.22543335 C193.54654631 -0.6438315 201.15974072 0.23664436 208.77108765 1.06558228 C228.09437147 3.15285901 246.15438417 2.79164158 265.47396851 0.77456665 C304.69411449 -3.31236525 304.69411449 -3.31236525 317.22396851 4.96206665 C325.44225998 13.56260424 329.00141073 22.87221241 328.91146851 34.77456665 C327.7121868 45.42701006 324.80210367 52.5368401 316.84896851 59.64956665 C309.5222102 64.94977479 301.57489406 64.61681968 292.86459351 63.32144165 C291.02458976 62.96563982 289.18594137 62.6027305 287.34896851 62.2315979 C282.91293335 61.39984131 279.36585454 61.17959055 275.16146851 62.89956665 C270.80266987 66.53189884 269.72165912 70.74979251 269.10071564 76.23582458 C268.68452613 81.81898883 268.75457285 87.41915374 268.75033569 93.01480103 C268.7456996 94.44813157 268.74067389 95.88146089 268.73529053 97.31478882 C268.72223738 101.19129839 268.71573504 105.06779069 268.71127987 108.94431877 C268.70833656 111.3740499 268.70422937 113.80377645 268.6997757 116.23350525 C268.68611701 123.85811638 268.67644342 131.48271687 268.6725738 139.10733938 C268.66810236 147.86636569 268.65059014 156.62523523 268.62157321 165.38421392 C268.59984647 172.18202445 268.58986364 178.97979123 268.58853269 185.77763605 C268.58749213 189.82462268 268.58174667 193.87146163 268.56371307 197.91841125 C268.54704179 201.73361051 268.54516748 205.54855411 268.55385208 209.36377716 C268.55497027 211.40268338 268.54139964 213.44158186 268.52709961 215.48043823 C268.42319957 232.88011446 268.42319957 232.88011446 275.91146851 247.77456665 C280.20338469 249.92052474 284.98730591 248.81677328 289.47396851 247.77456665 C297.67332527 246.04706858 307.63942712 244.76312094 315.10287476 249.32144165 C323.50598095 256.07296541 327.21374382 263.08261494 328.72396851 273.58706665 C329.50428541 284.0400619 326.79741692 292.729758 321.22396851 301.39956665 C315.03637103 307.75439649 307.78013893 311.72561095 298.78793335 312.04019165 C297.27443835 312.04854946 295.76081611 312.04264456 294.24740601 312.02456665 C293.42412811 312.01924927 292.60085022 312.01393188 291.75262451 312.00845337 C283.16675454 311.88029849 274.68224096 311.01582439 266.15496826 310.06393433 C244.32278827 307.6512829 223.74083113 307.16362944 201.91146851 309.77456665 C169.58397995 313.59817911 169.58397995 313.59817911 158.59896851 306.21206665 C152.6573824 301.31971341 148.8058287 294.16170641 146.91146851 286.77456665 C146.60772139 283.31214155 146.5867359 279.87362646 146.59896851 276.39956665 C146.58285522 275.49206665 146.56674194 274.58456665 146.55014038 273.64956665 C146.54479748 266.23362434 147.68961365 259.65763511 152.78646851 253.89956665 C153.25826538 253.34526978 153.73006226 252.7909729 154.21615601 252.21987915 C159.74505818 247.50629895 166.92631156 248.42295303 173.78256226 248.38394165 C178.80602491 248.40631724 178.80602491 248.40631724 182.96615601 245.98550415 C184.73367093 241.8515643 185.05184785 238.21119453 185.11679077 233.72085571 C185.13697266 232.48287231 185.15715454 231.24488892 185.177948 229.96939087 C185.19442383 228.67275513 185.21089966 227.37611938 185.22787476 226.04019165 C185.25585144 224.24750854 185.25585144 224.24750854 185.28439331 222.41860962 C185.35269448 217.95400387 185.41284097 213.48927638 185.47396851 209.02456665 C185.61834351 199.04206665 185.76271851 189.05956665 185.91146851 178.77456665 C153.90146851 178.77456665 121.89146851 178.77456665 88.91146851 178.77456665 C89.01459351 188.69519165 89.11771851 198.61581665 89.22396851 208.83706665 C89.26131104 213.51841797 89.26131104 213.51841797 89.29940796 218.29434204 C89.33170453 220.77865089 89.36507918 223.26294605 89.39974976 225.7472229 C89.40599365 227.02851074 89.41223755 228.30979858 89.41867065 229.62991333 C89.56289164 238.61272833 89.56289164 238.61272833 92.91146851 246.77456665 C95.17964846 247.90865663 96.53189694 247.92627573 99.05209351 247.98550415 C99.87580444 248.01386353 100.69951538 248.0422229 101.54818726 248.07144165 C103.27454596 248.12305178 105.00113676 248.16745912 106.72787476 248.20425415 C112.70663085 248.42741145 117.06280653 249.31546529 121.73959351 253.35269165 C122.20881226 253.9044104 122.67803101 254.45612915 123.16146851 255.02456665 C123.64099976 255.5659729 124.12053101 256.10737915 124.61459351 256.66519165 C130.16575234 265.69418494 129.34610814 280.12869549 127.18881226 290.1222229 C126.27440833 292.51744291 125.25328429 294.59411599 123.91146851 296.77456665 C123.56084351 297.41136353 123.21021851 298.0481604 122.84896851 298.70425415 C118.96081992 304.99549457 112.67459375 309.32026215 105.53646851 311.14956665 C95.12815746 312.77667527 84.83260731 311.31176607 74.46966553 310.06393433 C49.05894851 307.04196773 25.15272173 307.95103192 -0.27651978 310.63150024 C-30.17962582 313.76029865 -30.17962582 313.76029865 -43.08853149 303.77456665 C-50.73413474 296.14330788 -53.33717436 288.49329958 -53.52603149 277.83706665 C-53.47701913 271.11459306 -52.45246058 265.62990572 -49.08853149 259.77456665 C-48.46978149 258.68208618 -48.46978149 258.68208618 -47.83853149 257.5675354 C-44.15164339 251.921988 -39.55178609 248.68598307 -33.08853149 246.77456665 C-25.94758676 245.94218659 -19.2763711 246.76142398 -12.30337524 248.3097229 C-9.06909678 248.98852208 -6.37034224 249.22501126 -3.08853149 248.77456665 C1.94389369 245.22899436 3.60878994 240.57500701 4.91146851 234.77456665 C6.06925089 227.51273634 6.066205 220.33602892 6.07260132 212.99331665 C6.07723784 211.60924652 6.0822636 210.22517765 6.08764648 208.84111023 C6.10069577 205.09889391 6.10720123 201.35669548 6.11165714 197.61445999 C6.11460114 195.26848364 6.11870845 192.92251203 6.12316132 190.57653809 C6.13681912 183.21355559 6.14649309 175.85058411 6.15036321 168.48758984 C6.15483415 160.03136379 6.17234436 151.57530017 6.2013638 143.11912346 C6.22309662 136.55485654 6.2330737 129.99063492 6.23440433 123.42633247 C6.23544447 119.519072 6.24118088 115.61196454 6.25922394 111.70474243 C6.27590587 108.02086459 6.27776461 104.33725146 6.26908493 100.65334892 C6.26796778 98.68600891 6.28153019 96.71867686 6.2958374 94.75138855 C6.36278948 77.51221717 6.36278948 77.51221717 -1.08853149 62.77456665 C-5.51298233 60.56234123 -10.56701668 61.81813075 -15.21353149 62.77456665 C-23.47575494 64.34291168 -32.79748788 65.70527238 -40.31509399 61.1534729 C-47.22902602 55.77766232 -51.27346013 49.35588037 -53.08853149 40.77456665 C-54.25757744 29.50592794 -52.76844544 19.95526095 -46.46353149 10.46206665 C-41.1588503 3.97116277 -34.0424823 0.48403626 -25.90103149 -0.99887085 C-17.19127107 -1.70049044 -8.67136475 -0.9067497 0 0 Z " fill="#E0A42A" transform="translate(74.08853149414063,75.22543334960938)"/>
<path d="M0 0 C17.72771578 2.15590071 35.51191321 2.01797264 53.21264648 -0.27441406 C60.14090601 -1.10349303 66.34024942 -1.73101211 72.36889648 2.28808594 C76.68490357 7.05057651 76.53214256 11.84026831 76.57421875 17.98217773 C76.58411835 18.87019073 76.59401794 19.75820374 76.60421753 20.67312622 C76.63582938 23.6111585 76.66058877 26.54920695 76.68530273 29.48730469 C76.70587253 31.52326378 76.72686901 33.5592186 76.74827576 35.59516907 C76.80349378 40.95615178 76.85290428 46.31717302 76.90112305 51.67822266 C76.95134001 57.14782137 77.00702506 62.61736408 77.06225586 68.08691406 C77.16983415 78.82059019 77.2712799 89.55431492 77.36889648 100.28808594 C78.38876144 99.35943977 78.38876144 99.35943977 79.42922974 98.41203308 C80.32471527 97.60051285 81.22020081 96.78899261 82.14282227 95.95288086 C83.02898224 95.14815842 83.91514221 94.34343597 84.82815552 93.514328 C99.08890458 81.01880805 118.31218812 72.07392958 137.36889648 71.28808594 C138.30475586 71.23652344 139.24061523 71.18496094 140.20483398 71.13183594 C163.43381841 70.44356973 184.07863621 78.09118852 201.06420898 94.01855469 C226.00266322 118.57659182 235.23408365 153.23495003 235.6105957 187.39746094 C235.69395903 223.95963514 228.7666869 257.35472072 205.36889648 286.28808594 C204.62639648 287.27808594 203.88389648 288.26808594 203.11889648 289.28808594 C188.9703744 305.91719306 165.94386391 316.43880302 144.36889648 318.28808594 C124.343127 319.47211237 105.57452182 318.37813169 87.36889648 309.28808594 C86.39823242 308.80855469 85.42756836 308.32902344 84.42749023 307.83496094 C74.23667401 302.36088495 65.37764589 294.48706954 58.36889648 285.28808594 C58.34311523 286.20589844 58.31733398 287.12371094 58.29077148 288.06933594 C57.8893492 296.75465449 57.26696206 303.16727375 51.18139648 309.60058594 C41.84941503 315.19977481 30.87819705 315.90754999 20.32592773 313.63183594 C13.46144972 311.22251839 9.34212383 307.14057743 6.05639648 300.72558594 C4.39110942 294.82138633 4.22326577 289.13701604 4.23086548 283.05401611 C4.2280442 282.13306239 4.22522292 281.21210866 4.22231615 280.26324725 C4.2139934 277.18200001 4.21263389 274.1007888 4.21118164 271.01953125 C4.20651172 268.80829772 4.20136786 266.59706515 4.19578552 264.38583374 C4.18451539 259.6255833 4.17607598 254.86533908 4.16966629 250.10507965 C4.15897529 242.57432227 4.13872757 235.04360963 4.11654663 227.51287842 C4.08602231 216.95097306 4.05679211 206.38906639 4.03100586 195.82714844 C4.02936768 195.15728561 4.0277295 194.48742279 4.02604167 193.79726109 C3.99976836 182.94710751 3.98111678 172.09695054 3.96441396 161.24677864 C3.9469676 150.09328133 3.91790755 138.9398434 3.87952459 127.78639674 C3.85847166 121.52966989 3.84299969 115.27303763 3.84071732 109.0162735 C3.8385673 103.12947287 3.82266157 97.24286928 3.79632759 91.35612869 C3.78914707 89.19950828 3.78702756 87.04286397 3.79043007 84.88623428 C3.79434281 81.93395495 3.77981191 78.98229936 3.76089478 76.03009033 C3.76642447 75.18395715 3.77195417 74.33782397 3.77765143 73.46605039 C3.71761373 68.00919335 3.45569276 59.37488222 -0.63110352 55.28808594 C-4.29454963 55.15240275 -7.13726073 55.12347167 -10.63110352 56.28808594 C-27.40947596 57.4265517 -27.40947596 57.4265517 -34.63110352 52.28808594 C-40.25960599 46.51146498 -41.61107147 39.89663265 -41.81860352 32.03808594 C-41.64548233 22.64232707 -39.62619844 14.71790443 -33.63110352 7.28808594 C-23.92190468 -1.54509496 -12.34919686 -1.50205576 0 0 Z M92.43139648 144.72558594 C77.21422048 166.0535964 75.03043924 191.97844038 78.61499023 217.29589844 C81.07783798 231.32477797 86.04463437 244.07512693 97.36889648 253.28808594 C106.20692574 259.08351496 116.82181436 260.55838689 127.13061523 258.82324219 C137.52278909 256.37376188 144.73474055 251.33740716 150.36889648 242.28808594 C150.7362793 241.71832031 151.10366211 241.14855469 151.48217773 240.56152344 C158.99410629 227.39389577 159.60647261 210.70988521 159.61889648 195.97558594 C159.61957123 195.26043823 159.62024597 194.54529053 159.62094116 193.80847168 C159.59265493 174.94498911 158.47761073 155.25131666 144.93139648 140.66308594 C143.66295898 139.48746094 143.66295898 139.48746094 142.36889648 138.28808594 C141.62639648 137.58683594 140.88389648 136.88558594 140.11889648 136.16308594 C124.6279942 125.60110711 103.77950966 130.79970293 92.43139648 144.72558594 Z " fill="#E1A42A" transform="translate(712.631103515625,73.7119140625)"/>
<path d="M0 0 C2.66185391 2.4770723 4.872303 5.05522348 7 8 C7.52078125 8.70253906 8.0415625 9.40507812 8.578125 10.12890625 C15.53984346 20.51874365 18.06885285 32.76190472 19.12133789 45.03295898 C19.2459683 46.45559256 19.2459683 46.45559256 19.37311649 47.90696621 C20.19218369 58.07796173 20.29590844 68.23454725 20.30496025 78.43361092 C20.30869947 81.81835483 20.32561561 85.20282487 20.34571838 88.58750916 C20.40049144 98.19085633 20.43201658 107.79423697 20.45629883 117.39770508 C20.4721516 123.31701975 20.50231104 129.23612585 20.54106331 135.15533257 C20.55269557 137.39800245 20.5586435 139.64070945 20.55874443 141.8834095 C20.55893606 145.00070368 20.57716071 148.11741534 20.59936523 151.23461914 C20.59478806 152.15455658 20.59021088 153.07449402 20.585495 154.02230835 C20.63924613 158.75877617 20.74334509 162.25259787 24 166 C27.12214129 166.53235945 27.12214129 166.53235945 30.625 166.1875 C40.94216254 165.85879287 47.94937946 167.21559356 56 174 C61.22655649 179.31557327 62.88392042 185.33633212 63.06640625 192.66796875 C62.66088593 201.38051129 59.82055659 208.68609624 53.4375 214.75 C38.16564352 226.89871885 20.75057616 228.1925409 2 227 C-9.80708015 225.51638784 -22.04774147 220.02504716 -30 211 C-37 201.33652008 -37 201.33652008 -37 198 C-38.03898438 198.79664063 -39.07796875 199.59328125 -40.1484375 200.4140625 C-68.46011339 221.99231613 -97.99608693 230.67608383 -133.86328125 226.5390625 C-153.64278582 223.56165464 -172.23938425 213.48300113 -184.24072266 197.33007812 C-192.96630777 184.55372413 -195.32134444 171.57789556 -195.4375 156.375 C-195.4478125 155.25520752 -195.458125 154.13541504 -195.46875 152.98168945 C-195.28960672 135.99666721 -190.35440938 120.57465615 -178.390625 108.18359375 C-158.6946208 90.19328926 -130.45448272 86.5753708 -105.23168945 81.69702148 C-80.05036691 77.73555742 -80.05036691 77.73555742 -59.5 64 C-55.91358184 56.82716367 -54.47362349 49.6321361 -56.6171875 41.72265625 C-59.81091521 34.36012466 -66.00415783 30.61980446 -73.1875 27.625 C-80.58422495 25.16285897 -88.29946474 24.68286033 -95.6875 27.3125 C-98.22076102 28.95723544 -98.22076102 28.95723544 -100 32 C-100.16716232 34.93463384 -100.16716232 34.93463384 -100 38.1875 C-99.88180335 47.87962567 -101.79979739 55.49539529 -108.6015625 62.6953125 C-118.81342114 71.97458131 -130.55979468 73.6639198 -143.89453125 73.37890625 C-154.97582913 72.80435094 -165.18024168 68.41805123 -172.671875 60.15625 C-180.6783245 50.16800606 -183.00532569 39.63028901 -182 27 C-180.34364057 19.16305368 -177.35231945 12.93129631 -172 7 C-171.46375 6.39542969 -170.9275 5.79085937 -170.375 5.16796875 C-135.24178239 -32.16107496 -38.63185226 -31.236781 0 0 Z M-63.54296875 121.01171875 C-64.30362137 121.22182083 -65.06427399 121.43192291 -65.84797668 121.64839172 C-67.46827182 122.09687467 -69.08819052 122.54671948 -70.70776367 122.99780273 C-73.13136952 123.67188824 -75.55677221 124.33917196 -77.98242188 125.00585938 C-101.19318496 130.05483929 -101.19318496 130.05483929 -119 144 C-120.80209315 151.59453543 -119.11728821 157.0300846 -115.5 163.8125 C-108.4533812 169.97829145 -99.74135135 170.60048923 -90.71484375 170.31640625 C-79.45027497 169.35696348 -70.54291544 166.05597543 -62.6875 157.75 C-54.17947213 146.9323136 -53.51385256 132.23401353 -54 119 C-57.29241285 119 -60.38924263 120.1345901 -63.54296875 121.01171875 Z " fill="#000000" transform="translate(618,165)"/>
<path d="M0 0 C0.7321875 0.50917969 1.464375 1.01835937 2.21875 1.54296875 C26.77459282 19.55948386 40.26598639 46.25248206 45 76 C46.20609602 84.41754515 46.24215467 92.82593477 46.25 101.3125 C46.25100708 102.06811218 46.25201416 102.82372437 46.25305176 103.60223389 C46.24221317 115.64358941 45.52987747 127.19574038 43 139 C42.86609863 139.68578125 42.73219727 140.3715625 42.59423828 141.078125 C37.25593439 168.20317945 21.78451793 193.19892196 -1.18701172 208.82373047 C-12.43486436 216.12135423 -23.96434725 220.97500184 -37 224 C-37.97283936 224.24339111 -37.97283936 224.24339111 -38.96533203 224.49169922 C-66.10200704 231.09361689 -97.94279959 228.46510199 -124 219 C-125.07894531 218.608125 -126.15789062 218.21625 -127.26953125 217.8125 C-152.7959273 207.85097959 -170.81211825 187.45815862 -182 163 C-196.91993063 127.19975933 -196.53892491 80.56434439 -182.08886719 44.74121094 C-177.87572334 35.08554273 -172.32265553 26.40247643 -166 18 C-165.49984375 17.32582031 -164.9996875 16.65164062 -164.484375 15.95703125 C-146.98843041 -6.01345089 -118.09775479 -16.07287159 -91.234375 -19.3359375 C-60.22175975 -22.47109259 -25.92351744 -18.49921893 0 0 Z M-102.0625 51 C-112.33943515 63.82516703 -116.43896959 80.84699943 -117 97 C-117.0515625 98.00417969 -117.103125 99.00835937 -117.15625 100.04296875 C-117.73749591 120.70141725 -114.20586452 143.07686017 -100.1953125 159.05859375 C-92.75937602 166.23226691 -83.15842102 169.62682152 -72.94140625 170.06640625 C-62.94054251 169.84062314 -53.98791677 167.19438456 -46.25 160.6875 C-45.5075 159.800625 -44.765 158.91375 -44 158 C-43.52046875 157.44828125 -43.0409375 156.8965625 -42.546875 156.328125 C-27.4434834 137.86842416 -27.84368183 109.7807079 -29.96459961 87.24291992 C-31.68173259 71.47505474 -35.88131436 54.98330893 -48.76953125 44.5703125 C-65.98092782 32.72214134 -88.05249861 36.36323539 -102.0625 51 Z " fill="#000000" transform="translate(1536,165)"/>
<path d="M0 0 C3.61901495 0.56768862 4.82328625 1.69201709 7.109375 4.50390625 C9.84230472 9.563787 10.51286408 15.17623305 11.0390625 20.82421875 C11.13469986 21.82724785 11.13469986 21.82724785 11.23226929 22.85054016 C11.36462962 24.25106549 11.49387825 25.65188816 11.62011719 27.05297852 C11.81298635 29.19289616 12.0150211 31.33179456 12.21875 33.47070312 C13.1875 43.81187865 13.1875 43.81187865 13.1875 48.5 C14.8375 48.83 16.4875 49.16 18.1875 49.5 C18.10371094 48.40300781 18.01992187 47.30601563 17.93359375 46.17578125 C17.83037811 44.72137904 17.72753306 43.26695049 17.625 41.8125 C17.54088867 40.7306543 17.54088867 40.7306543 17.45507812 39.62695312 C17.18586097 35.69638265 17.28196331 32.324101 18.1875 28.5 C18.28121897 26.83388506 18.36456201 25.16715394 18.4375 23.5 C18.79947114 19.76891281 19.14254853 18.56421638 21.375 15.375 C24.1875 13.5 24.1875 13.5 27.125 12.875 C31.15317613 13.69707676 33.56326059 15.44361554 36.1875 18.5 C39.96809379 24.37572698 41.41961622 30.7231494 42.75 37.5 C42.95979492 38.53294189 43.16958984 39.56588379 43.38574219 40.63012695 C45.42916397 51.05425432 46.74593706 61.55273252 47.87792969 72.11010742 C48.1559558 74.51877345 48.1559558 74.51877345 48.71313477 76.93261719 C49.66335661 82.07545453 49.37218 87.34832279 49.375 92.5625 C49.38724609 93.72716797 49.39949219 94.89183594 49.41210938 96.09179688 C49.43110146 107.45539431 49.19389272 123.49024861 41.1875 132.5 C40.5275 132.5 39.8675 132.5 39.1875 132.5 C39.1875 133.16 39.1875 133.82 39.1875 134.5 C38.5275 134.5 37.8675 134.5 37.1875 134.5 C36.94 135.11875 36.6925 135.7375 36.4375 136.375 C34.95979238 138.88710296 33.74794823 139.26107344 31.1875 140.5 C30.8575 141.49 30.5275 142.48 30.1875 143.5 C27.17958089 145.54108797 24.76554656 145.69878036 21.1875 145.5 C21.1875 146.49 21.1875 147.48 21.1875 148.5 C21.93515625 148.47679687 22.6828125 148.45359375 23.453125 148.4296875 C24.43796875 148.41164062 25.4228125 148.39359375 26.4375 148.375 C27.41203125 148.35179687 28.3865625 148.32859375 29.390625 148.3046875 C32.31840276 148.50914125 33.7071369 148.99860778 36.1875 150.5 C41.09712051 157.61650084 40.75409667 164.66717776 40.70166016 173.06323242 C40.70712783 174.53099298 40.71437324 175.99874781 40.72325134 177.4664917 C40.73853889 180.6154522 40.74141093 183.76408711 40.73448563 186.9130764 C40.72365025 191.90354888 40.74114098 196.89368477 40.76229858 201.8841095 C40.79251887 209.78738212 40.80424871 217.69055439 40.80787504 225.59388 C40.81452115 239.72205072 40.84378178 253.85015039 40.8929714 267.97823602 C40.90935968 272.92716929 40.91490741 277.8759566 40.91138101 282.82491434 C40.91094016 285.91974263 40.91856473 289.01451705 40.92805672 292.10932922 C40.93071177 293.53098646 40.93003579 294.952655 40.92554665 296.37430763 C40.89468023 306.88687649 40.92025021 317.71715493 45.1875 327.5 C45.81914063 327.4278125 46.45078125 327.355625 47.1015625 327.28125 C69.91005957 324.91495059 69.91005957 324.91495059 76.5703125 328.98828125 C82.02099628 334.08348565 83.91591466 341.27050493 84.25390625 348.51171875 C84.03090144 358.54693519 83.02869129 369.72704693 75.515625 377.15234375 C69.21425505 381.96201772 62.84106475 382.83451 55.125 382.75 C53.79637939 382.74419922 53.79637939 382.74419922 52.44091797 382.73828125 C46.50540663 382.66281651 40.70381232 382.18555196 34.8125 381.5 C14.52064579 379.22924961 -7.16467084 379.11129698 -27.41772461 381.77709961 C-33.44618657 382.55118227 -39.4238794 382.76032723 -45.5 382.8125 C-46.41007813 382.82990234 -47.32015625 382.84730469 -48.2578125 382.86523438 C-56.29095465 382.85926622 -63.12267452 381.07053743 -69.140625 375.48046875 C-75.52353007 367.91941064 -78.16189171 359.28296794 -77.8125 349.5 C-77.09648123 341.42074339 -75.40652482 334.90971586 -69.375 329.1875 C-62.76149802 324.83226699 -55.95221415 324.51159343 -48.2734375 325.98828125 C-46.76552197 326.35895614 -45.25770237 326.73002156 -43.75 327.1015625 C-41.07138149 327.65240743 -39.32478792 327.60836232 -36.8125 326.5 C-32.20408225 320.57489147 -32.66007105 313.89540381 -32.65136719 306.74365234 C-32.64640228 305.76572723 -32.64143738 304.78780212 -32.63632202 303.78024292 C-32.62173262 300.54880057 -32.6149028 297.31740736 -32.609375 294.0859375 C-32.60361973 291.83257039 -32.59786205 289.57920328 -32.59210205 287.32583618 C-32.58160041 282.59987155 -32.57575265 277.87392388 -32.57226562 273.14794922 C-32.56679081 267.11247695 -32.54278073 261.0772314 -32.51429367 255.04183006 C-32.49560351 250.38505413 -32.49045824 245.72833203 -32.48892975 241.07152176 C-32.48591575 238.84773142 -32.47792987 236.62394174 -32.46474457 234.40018845 C-32.44755497 231.27752567 -32.44959607 228.15540665 -32.45605469 225.03271484 C-32.4468399 224.12634277 -32.43762512 223.2199707 -32.4281311 222.28613281 C-32.47077799 215.65350064 -33.81670124 209.81232992 -35.8125 203.5 C-37.66875 203.7165625 -37.66875 203.7165625 -39.5625 203.9375 C-40.60664062 204.05931641 -40.60664062 204.05931641 -41.671875 204.18359375 C-43.78083187 204.44952461 -43.78083187 204.44952461 -45.65625 205.015625 C-52.98302628 206.66149503 -61.66004223 206.74234049 -68.19921875 202.765625 C-73.6640622 198.47843546 -76.1720052 193.69400921 -77.21875 186.83984375 C-78.51737935 175.40305114 -77.12335016 165.69492388 -69.8125 156.5 C-63.16879076 150.10774589 -56.54164443 148.12575226 -47.375 148.1875 C-46.56893311 148.18878906 -45.76286621 148.19007813 -44.93237305 148.19140625 C-34.4714768 148.3502205 -24.1392735 149.92862532 -13.8125 151.5 C-13.8125 149.85 -13.8125 148.2 -13.8125 146.5 C-14.8025 146.438125 -15.7925 146.37625 -16.8125 146.3125 C-21.42146886 145.67157999 -25.25952822 143.4623479 -28.8125 140.5 C-28.8125 139.84 -28.8125 139.18 -28.8125 138.5 C-29.38871094 138.32082031 -29.96492187 138.14164063 -30.55859375 137.95703125 C-36.97126867 133.81157588 -40.80125377 121.63078209 -42.8125 114.5 C-47.67008811 88.67643483 -43.70397287 57.41663107 -40 31.5 C-39.85916992 30.44506348 -39.71833984 29.39012695 -39.57324219 28.30322266 C-38.65595335 22.56107113 -37.72826275 19.11342438 -32.8125 15.5 C-29.8125 14.5 -29.8125 14.5 -27.4375 15.3125 C-22.65262719 19.29989401 -20.11729079 25.46695743 -18.8125 31.5 C-18.626875 32.2425 -18.44125 32.985 -18.25 33.75 C-18.105625 34.3275 -17.96125 34.905 -17.8125 35.5 C-18.4725 35.5 -19.1325 35.5 -19.8125 35.5 C-19.8125 37.48 -19.8125 39.46 -19.8125 41.5 C-18.8225 41.995 -18.8225 41.995 -17.8125 42.5 C-17.125 44.4375 -17.125 44.4375 -16.8125 46.5 C-17.3075 47.49 -17.3075 47.49 -17.8125 48.5 C-15.1725 48.5 -12.5325 48.5 -9.8125 48.5 C-9.9775 47.241875 -10.1425 45.98375 -10.3125 44.6875 C-10.63408241 42.23543415 -10.8125 39.98349306 -10.8125 37.5 C-11.1425 37.17 -11.4725 36.84 -11.8125 36.5 C-12.45876374 29.6272337 -11.75249425 22.88897127 -10.5625 16.125 C-10.45325195 15.45976318 -10.34400391 14.79452637 -10.23144531 14.10913086 C-9.11856619 8.29134346 -6.38239738 1.13464842 0 0 Z M-10.8125 30.5 C-10.8125 32.15 -10.8125 33.8 -10.8125 35.5 C-10.4825 35.5 -10.1525 35.5 -9.8125 35.5 C-9.8125 33.85 -9.8125 32.2 -9.8125 30.5 C-10.1425 30.5 -10.4725 30.5 -10.8125 30.5 Z M10.1875 39.5 C11.1875 43.5 11.1875 43.5 11.1875 43.5 Z " fill="#BDB4AC" transform="translate(1044.8125,3.5)"/>
<path d="M0 0 C0.87881836 -0.0093457 1.75763672 -0.01869141 2.66308594 -0.02832031 C10.92713793 0.01205273 18.82348441 0.68798664 25.3125 6.25 C29.56328312 12.9926215 29.46591912 20.09810826 29.55859375 27.8125 C29.59151854 29.67969243 29.62473041 31.54687981 29.65820312 33.4140625 C29.7056387 36.33688058 29.75012969 39.25967625 29.78930664 42.18261719 C29.82912102 45.01778275 29.88062215 47.85255394 29.93359375 50.6875 C29.9420079 51.55640869 29.95042206 52.42531738 29.95909119 53.32055664 C30.05324959 57.96597064 30.33420902 61.95395044 32.3125 66.25 C38.21551433 70.18534289 45.60964176 69.39453789 52.48828125 69.42578125 C54.47071375 69.4489789 56.45313566 69.47309622 58.43554688 69.49804688 C61.529288 69.53309441 64.62263748 69.56248974 67.71655273 69.57592773 C70.72426532 69.59151174 73.7308669 69.63177748 76.73828125 69.67578125 C78.104403 69.67291862 78.104403 69.67291862 79.49812317 69.66999817 C86.61556712 69.80374402 93.75695454 71.13244743 99.26069641 75.95820618 C104.62039185 81.71506054 106.18311236 88.54555405 106.3125 96.25 C105.83796012 104.25390598 104.4099981 110.75025271 98.3125 116.25 C91.44491709 120.10178539 84.85802803 120.82919289 77.1171875 120.7890625 C76.08490021 120.80085541 75.05261292 120.81264832 73.98904419 120.82479858 C70.7217063 120.85980368 67.45500938 120.86920226 64.1875 120.875 C60.91304251 120.89140848 57.63886535 120.91356759 54.36453247 120.94662476 C52.33667208 120.96606834 50.30868375 120.97561015 48.2807312 120.97354126 C42.64074544 121.01582937 37.65089957 121.33774877 32.3125 123.25 C29.62354568 126.80629662 29.96641951 131.04176323 29.90185547 135.31298828 C29.88205627 136.12346619 29.86225708 136.93394409 29.84185791 137.76898193 C29.77864106 140.45264032 29.72905209 143.13636639 29.6796875 145.8203125 C29.63848027 147.69963263 29.59648569 149.57893564 29.55374146 151.45822144 C29.44327903 156.41926055 29.344608 161.3804705 29.24804688 166.34179688 C29.16821165 170.34128422 29.07994887 174.34056337 28.99117851 178.33986092 C28.88428895 183.16661354 28.78154877 187.99345146 28.6796875 192.8203125 C28.65101404 194.16768179 28.65101404 194.16768179 28.62176132 195.54227066 C28.42892532 204.75924426 28.27498912 213.97576739 28.23876953 223.19482422 C28.23334074 223.93026018 28.22791195 224.66569614 28.22231865 225.42341805 C28.214888 232.90864346 29.08632912 238.91074367 33.3125 245.25 C33.3125 245.91 33.3125 246.57 33.3125 247.25 C40.56457534 250.22133642 45.52762976 250.98995282 53.0625 248.25 C57.60944423 244.20827179 59.12019864 239.37334982 59.66308594 233.37890625 C59.83007427 228.83703176 59.83035052 224.2943661 59.8125 219.75 C59.7297487 198.68326191 59.7297487 198.68326191 66.1015625 191.12890625 C74.12704133 185.37446717 81.93899096 184.70815073 91.61328125 185.7734375 C94.98064843 186.36796542 97.45669248 187.36934627 100.3125 189.25 C101.1375 189.765625 101.9625 190.28125 102.8125 190.8125 C113.68565117 201.41382239 115.18367206 216.56212224 115.47875977 230.98999023 C115.68788941 251.395755 110.91698851 271.9862159 96.54589844 287.09082031 C80.00163947 303.85759789 59.34146656 310.24893961 36.14648438 310.49145508 C13.64933723 310.54159518 -8.14455595 308.06322358 -25.4375 292 C-39.70263807 276.67692107 -44.86166544 255.89659633 -44.8203125 235.5078125 C-44.82229141 233.95988762 -44.82229141 233.95988762 -44.8243103 232.38069153 C-44.82621952 229.04542996 -44.81990166 225.71025298 -44.8125 222.375 C-44.81117065 220.66547653 -44.81117065 220.66547653 -44.80981445 218.92141724 C-44.78770648 194.8048065 -44.78770648 194.8048065 -44.1875 183.1875 C-43.65859843 172.94014942 -43.54379558 162.7011538 -43.51025391 152.44192505 C-43.50348634 150.58275788 -43.49330355 148.72359962 -43.47949219 146.86447144 C-43.46150842 144.25070226 -43.45733204 141.63726168 -43.45703125 139.0234375 C-43.44988602 138.24222031 -43.44274078 137.46100311 -43.43537903 136.65611267 C-43.45515833 131.83117754 -43.92868186 127.77085976 -45.6875 123.25 C-51.52420563 120.63903255 -57.76495308 120.89135 -64.06640625 120.69140625 C-70.63460048 119.89075258 -74.42786166 117.07618607 -78.43359375 112.06640625 C-82.87967468 105.62582173 -83.16488735 97.19621381 -82.0625 89.6875 C-80.3374625 81.46482127 -76.3791481 76.1572086 -69.6875 71.25 C-67.20882559 70.0106628 -65.0093063 70.06627218 -62.27783203 69.96020508 C-51.95439072 69.92982181 -51.95439072 69.92982181 -42.6875 66.25 C-40.7208224 61.56809008 -40.39381833 57.21992263 -40.37890625 52.2109375 C-40.35372571 50.64452786 -40.32832802 49.0781217 -40.30273438 47.51171875 C-40.2741815 45.07667117 -40.25012969 42.64168447 -40.23120117 40.20654297 C-40.00997964 16.32920334 -40.00997964 16.32920334 -34.5625 8.75 C-24.88995995 0.33909561 -12.2381309 0.08989183 0 0 Z " fill="#84AAB5" transform="translate(1211.6875,81.75)"/>
<path d="M0 0 C0 0.99 0 1.98 0 3 C0.99 3.495 0.99 3.495 2 4 C2 5.65 2 7.3 2 9 C1.505 8.01 1.505 8.01 1 7 C0.34 7 -0.32 7 -1 7 C-0.505 9.475 -0.505 9.475 0 12 C-0.66 12 -1.32 12 -2 12 C-2.33 13.65 -2.66 15.3 -3 17 C-3.66 16.67 -4.32 16.34 -5 16 C-5 15.34 -5 14.68 -5 14 C-5.66 14 -6.32 14 -7 14 C-6.505 15.485 -6.505 15.485 -6 17 C-6.99 17 -7.98 17 -9 17 C-9.33 18.32 -9.66 19.64 -10 21 C-8.68 20.67 -7.36 20.34 -6 20 C-8.05233685 22.2477975 -9.00667261 23.0022242 -12 24 C-14.07741505 27.11612257 -14.50024456 30.3351268 -15 34 C-15.66 34 -16.32 34 -17 34 C-16.34 34.99 -15.68 35.98 -15 37 C-12.93704708 35.89290509 -12.93704708 35.89290509 -11 34 C-10.7834375 32.576875 -10.7834375 32.576875 -10.5625 31.125 C-9.83522439 27.08457997 -8.0341208 25.64513095 -5 23 C-3 24 -3 24 -1 26 C-1.99 27.485 -1.99 27.485 -3 29 C-2.69159401 31.15274948 -2.69159401 31.15274948 -2 33 C-2.763125 33.144375 -3.52625 33.28875 -4.3125 33.4375 C-7.08172908 33.9632594 -7.08172908 33.9632594 -10 35 C-10.73323796 37.01508358 -10.73323796 37.01508358 -11 39 C-11.66 39 -12.32 39 -13 39 C-13.495 39.99 -13.495 39.99 -14 41 C-14.66 41 -15.32 41 -16 41 C-16.66 41.99 -17.32 42.98 -18 44 C-17.67 44.66 -17.34 45.32 -17 46 C-16.95977609 48.3329866 -16.95679753 50.66706666 -17 53 C-15.02 53.33 -13.04 53.66 -11 54 C-9.6327134 58.51204577 -10.20149468 61.66723719 -12 66 C-14.625 67.4375 -14.625 67.4375 -17 68 C-17.33 67.67 -17.66 67.34 -18 67 C-18.66 67.66 -19.32 68.32 -20 69 C-22.0625 66.6875 -22.0625 66.6875 -24 64 C-23.67 63.01 -23.34 62.02 -23 61 C-23 61.66 -23 62.32 -23 63 C-20.69 63.33 -18.38 63.66 -16 64 C-16.33 63.34 -16.66 62.68 -17 62 C-18.485 61.505 -18.485 61.505 -20 61 C-20.33 60.01 -20.66 59.02 -21 58 C-20.505 57.01 -20.505 57.01 -20 56 C-21.98 55.34 -23.96 54.68 -26 54 C-26 52.02 -26 50.04 -26 48 C-26.66 48 -27.32 48 -28 48 C-28.33 49.32 -28.66 50.64 -29 52 C-29.61875 52.12375 -30.2375 52.2475 -30.875 52.375 C-33.19120832 52.87197356 -33.19120832 52.87197356 -35 55 C-35.66 54.34 -36.32 53.68 -37 53 C-37.99 53.33 -38.98 53.66 -40 54 C-39.67 52.35 -39.34 50.7 -39 49 C-40.23267348 50.00836062 -40.23267348 50.00836062 -40.09765625 52.06640625 C-40.08605469 52.89011719 -40.07445312 53.71382812 -40.0625 54.5625 C-40.05347656 55.38878906 -40.04445313 56.21507812 -40.03515625 57.06640625 C-40.02355469 57.70449219 -40.01195312 58.34257812 -40 59 C-40.99 59 -41.98 59 -43 59 C-43.95024979 62.69541586 -43.95024979 65.30458414 -43 69 C-43.99 69.66 -44.98 70.32 -46 71 C-46.86733804 66.4898422 -47.28596844 64.00044477 -45 60 C-45.33 59.01 -45.66 58.02 -46 57 C-45.0625 54.8125 -45.0625 54.8125 -44 53 C-44.99 53.33 -45.98 53.66 -47 54 C-47.33 53.01 -47.66 52.02 -48 51 C-49.65 51 -51.3 51 -53 51 C-52.34 52.98 -51.68 54.96 -51 57 C-50.34 56.34 -49.68 55.68 -49 55 C-49 55.99 -49 56.98 -49 58 C-48.34 58 -47.68 58 -47 58 C-47.495 58.99 -47.495 58.99 -48 60 C-48.99 59.505 -48.99 59.505 -50 59 C-49.7215625 60.1446875 -49.7215625 60.1446875 -49.4375 61.3125 C-49 64 -49 64 -50 67 C-49.01 67.495 -49.01 67.495 -48 68 C-48.33 68.33 -48.66 68.66 -49 69 C-49.28318854 71.84087552 -49.44850213 74.68165215 -49.62109375 77.53125 C-49.74613281 78.3459375 -49.87117188 79.160625 -50 80 C-50.99 80.495 -50.99 80.495 -52 81 C-53.13350534 83.01669827 -53.13350534 83.01669827 -54 85 C-54.33 83.02 -54.66 81.04 -55 79 C-54.34 79 -53.68 79 -53 79 C-52.67 73.39 -52.34 67.78 -52 62 C-52.99 61.67 -53.98 61.34 -55 61 C-55 58.69 -55 56.38 -55 54 C-55.66 53.67 -56.32 53.34 -57 53 C-57.66 53.99 -58.32 54.98 -59 56 C-58.484375 56.721875 -57.96875 57.44375 -57.4375 58.1875 C-55.78557018 61.4195366 -55.93648325 62.61608307 -57 66 C-57.33 65.01 -57.66 64.02 -58 63 C-58.66 63 -59.32 63 -60 63 C-60.33 64.32 -60.66 65.64 -61 67 C-61.33 66.01 -61.66 65.02 -62 64 C-62.33 65.65 -62.66 67.3 -63 69 C-63.495 68.01 -63.495 68.01 -64 67 C-64.66 67 -65.32 67 -66 67 C-66.66 68.32 -67.32 69.64 -68 71 C-68.66 70.67 -69.32 70.34 -70 70 C-70.1875 67.625 -70.1875 67.625 -70 65 C-67 63 -67 63 -64 63 C-64 62.34 -64 61.68 -64 61 C-64.66 61 -65.32 61 -66 61 C-65.979375 59.9275 -65.95875 58.855 -65.9375 57.75 C-65.9857984 54.85209576 -66.13155885 52.71387859 -67 50 C-69.03241727 50.63979849 -69.03241727 50.63979849 -71 52 C-71.61432869 54.31850007 -71.61432869 54.31850007 -72 57 C-72.95394836 59.02237052 -73.94535351 61.0282696 -75 63 C-75.66 63 -76.32 63 -77 63 C-76.39009109 59.44219804 -75.4216319 56.3171411 -74 53 C-74.66 53 -75.32 53 -76 53 C-76.66 52.01 -77.32 51.02 -78 50 C-77.34 51.65 -76.68 53.3 -76 55 C-76.99 55.99 -77.98 56.98 -79 58 C-78.67 58.33 -78.34 58.66 -78 59 C-77.61393848 64.01879978 -78.02336147 66.90712202 -81 71 C-83 70 -83 70 -83.8515625 67.953125 C-87.23489846 56.1285367 -87.23721646 45.28514753 -82 34 C-80.2539664 31.06143048 -78.28727523 28.53469682 -76 26 C-75.46375 25.39542969 -74.9275 24.79085937 -74.375 24.16796875 C-56.5218565 5.19900378 -24.9717586 -0.82324479 0 0 Z " fill="#1A150B" transform="translate(522,146)"/>
<path d="M0 0 C1.28777344 0.01160156 2.57554687 0.02320313 3.90234375 0.03515625 C5.83787109 0.04869141 5.83787109 0.04869141 7.8125 0.0625 C8.81152344 0.07410156 9.81054688 0.08570313 10.83984375 0.09765625 C11.83984375 3.09765625 11.83984375 3.09765625 11.83984375 4.09765625 C12.31692121 6.09622397 12.83504188 8.08002603 13.375 10.0625 C14.38241821 13.83099033 15.08599173 17.15928864 14.83984375 21.09765625 C13.33423878 18.24355291 12.20767579 15.41640983 11.21484375 12.34765625 C10.82425781 11.14882812 10.82425781 11.14882812 10.42578125 9.92578125 C10.23242188 9.3225 10.0390625 8.71921875 9.83984375 8.09765625 C9.50984375 9.74765625 9.17984375 11.39765625 8.83984375 13.09765625 C9.82984375 13.59265625 9.82984375 13.59265625 10.83984375 14.09765625 C10.17984375 14.09765625 9.51984375 14.09765625 8.83984375 14.09765625 C9.33484375 16.07765625 9.33484375 16.07765625 9.83984375 18.09765625 C9.17984375 18.09765625 8.51984375 18.09765625 7.83984375 18.09765625 C7.83984375 18.75765625 7.83984375 19.41765625 7.83984375 20.09765625 C8.82984375 21.08765625 8.82984375 21.08765625 9.83984375 22.09765625 C11.18911085 25.02106831 11.83984375 26.84972941 11.83984375 30.09765625 C11.17984375 30.09765625 10.51984375 30.09765625 9.83984375 30.09765625 C8.84984375 27.12765625 8.84984375 27.12765625 7.83984375 24.09765625 C5.3671761 24.44210506 5.3671761 24.44210506 2.83984375 25.09765625 C2.50984375 25.75765625 2.17984375 26.41765625 1.83984375 27.09765625 C0.35484375 27.59265625 0.35484375 27.59265625 -1.16015625 28.09765625 C-1.16015625 29.41765625 -1.16015625 30.73765625 -1.16015625 32.09765625 C2.17521864 30.98586462 3.47691719 29.62354327 5.83984375 27.09765625 C5.57171875 28.10828125 5.30359375 29.11890625 5.02734375 30.16015625 C4.77846195 35.38667396 6.64487551 37.24130923 9.83984375 41.09765625 C10.16984375 41.75765625 10.49984375 42.41765625 10.83984375 43.09765625 C7.67463084 45.20779819 6.14954001 45.4508311 2.46484375 45.91015625 C-1.0479642 46.54292695 -3.20636836 47.12393372 -6.34765625 48.91015625 C-8.84462994 53.30138584 -8.40170138 56.91040382 -8.22265625 61.87890625 C-8.06386096 70.05686367 -11.17940431 76.88388469 -16.76171875 82.79296875 C-26.97357739 92.07223756 -38.71995093 93.76157605 -52.0546875 93.4765625 C-63.34436817 92.89120273 -73.24540031 88.3375362 -81.0078125 80.1484375 C-83.8049502 76.80334116 -85.17870479 75.11782614 -85.09765625 70.66015625 C-84.16015625 68.09765625 -84.16015625 68.09765625 -83.16015625 67.09765625 C-82.79254894 64.76947661 -82.45774044 62.43581775 -82.16015625 60.09765625 C-82.82015625 59.76765625 -83.48015625 59.43765625 -84.16015625 59.09765625 C-83.50015625 58.10765625 -82.84015625 57.11765625 -82.16015625 56.09765625 C-82.16015625 53.94131589 -82.60667985 52.17319273 -83.16015625 50.09765625 C-82.17015625 50.75765625 -81.18015625 51.41765625 -80.16015625 52.09765625 C-80.16015625 52.75765625 -80.16015625 53.41765625 -80.16015625 54.09765625 C-79.50015625 54.09765625 -78.84015625 54.09765625 -78.16015625 54.09765625 C-79.15015625 57.39765625 -80.14015625 60.69765625 -81.16015625 64.09765625 C-80.50015625 64.09765625 -79.84015625 64.09765625 -79.16015625 64.09765625 C-79.00546875 63.04578125 -79.00546875 63.04578125 -78.84765625 61.97265625 C-77.73273608 57.31026282 -76.47498339 54.01497751 -72.47265625 51.22265625 C-71.70953125 50.85140625 -70.94640625 50.48015625 -70.16015625 50.09765625 C-69.23171236 54.43039439 -69.23171236 57.76491811 -70.16015625 62.09765625 C-69.50015625 62.09765625 -68.84015625 62.09765625 -68.16015625 62.09765625 C-68.16015625 62.75765625 -68.16015625 63.41765625 -68.16015625 64.09765625 C-71.13015625 65.08765625 -71.13015625 65.08765625 -74.16015625 66.09765625 C-73.83015625 67.74765625 -73.50015625 69.39765625 -73.16015625 71.09765625 C-72.70640625 70.62328125 -72.25265625 70.14890625 -71.78515625 69.66015625 C-70.16015625 68.09765625 -70.16015625 68.09765625 -68.16015625 67.09765625 C-67.70640625 66.58203125 -67.25265625 66.06640625 -66.78515625 65.53515625 C-65.16015625 64.09765625 -65.16015625 64.09765625 -61.16015625 64.09765625 C-61.75877367 61.74594494 -62.42939977 59.41171845 -63.16015625 57.09765625 C-63.82015625 56.76765625 -64.48015625 56.43765625 -65.16015625 56.09765625 C-64.17015625 56.09765625 -63.18015625 56.09765625 -62.16015625 56.09765625 C-61.83015625 55.10765625 -61.50015625 54.11765625 -61.16015625 53.09765625 C-59.67515625 53.59265625 -59.67515625 53.59265625 -58.16015625 54.09765625 C-58.16015625 56.40765625 -58.16015625 58.71765625 -58.16015625 61.09765625 C-56.67515625 61.59265625 -56.67515625 61.59265625 -55.16015625 62.09765625 C-54.95825536 68.45753429 -55.53237295 73.94986754 -57.16015625 80.09765625 C-57.82015625 80.09765625 -58.48015625 80.09765625 -59.16015625 80.09765625 C-58.50015625 80.75765625 -57.84015625 81.41765625 -57.16015625 82.09765625 C-54.68596236 79.62346236 -54.80356284 78.51735501 -54.53515625 75.09765625 C-54.46039063 74.21078125 -54.385625 73.32390625 -54.30859375 72.41015625 C-54.17445572 70.32042699 -54.15680371 68.27981068 -54.1953125 66.1875 C-54.22109966 64.15768205 -54.19237412 62.12738231 -54.16015625 60.09765625 C-53.83015625 59.76765625 -53.50015625 59.43765625 -53.16015625 59.09765625 C-54.15015625 59.09765625 -55.14015625 59.09765625 -56.16015625 59.09765625 C-56.49015625 56.78765625 -56.82015625 54.47765625 -57.16015625 52.09765625 C-54.78515625 51.97265625 -54.78515625 51.97265625 -52.16015625 52.09765625 C-51.50015625 52.75765625 -50.84015625 53.41765625 -50.16015625 54.09765625 C-49.50015625 54.09765625 -48.84015625 54.09765625 -48.16015625 54.09765625 C-48.82015625 56.07765625 -49.48015625 58.05765625 -50.16015625 60.09765625 C-49.17015625 60.59265625 -49.17015625 60.59265625 -48.16015625 61.09765625 C-48.68609375 61.96390625 -48.68609375 61.96390625 -49.22265625 62.84765625 C-50.30933032 65.45567401 -50.09080758 66.49183254 -49.16015625 69.09765625 C-48.83015625 68.43765625 -48.50015625 67.77765625 -48.16015625 67.09765625 C-48.49015625 66.10765625 -48.82015625 65.11765625 -49.16015625 64.09765625 C-48.22265625 61.91015625 -48.22265625 61.91015625 -47.16015625 60.09765625 C-46.17015625 60.09765625 -45.18015625 60.09765625 -44.16015625 60.09765625 C-44.49015625 56.79765625 -44.82015625 53.49765625 -45.16015625 50.09765625 C-44.17015625 50.09765625 -43.18015625 50.09765625 -42.16015625 50.09765625 C-42.49015625 51.41765625 -42.82015625 52.73765625 -43.16015625 54.09765625 C-42.17015625 53.76765625 -41.18015625 53.43765625 -40.16015625 53.09765625 C-39.17015625 53.59265625 -39.17015625 53.59265625 -38.16015625 54.09765625 C-37.50015625 53.10765625 -36.84015625 52.11765625 -36.16015625 51.09765625 C-35.17015625 51.42765625 -34.18015625 51.75765625 -33.16015625 52.09765625 C-32.83015625 51.10765625 -32.50015625 50.11765625 -32.16015625 49.09765625 C-31.50015625 49.09765625 -30.84015625 49.09765625 -30.16015625 49.09765625 C-29.16015625 52.09765625 -29.16015625 52.09765625 -30.16015625 55.09765625 C-28.18015625 55.75765625 -26.20015625 56.41765625 -24.16015625 57.09765625 C-24.16015625 58.74765625 -24.16015625 60.39765625 -24.16015625 62.09765625 C-22.84015625 62.42765625 -21.52015625 62.75765625 -20.16015625 63.09765625 C-20.16015625 63.75765625 -20.16015625 64.41765625 -20.16015625 65.09765625 C-23.29365357 66.14215536 -24.14983881 66.0318927 -27.16015625 65.09765625 C-25.84015625 66.08765625 -24.52015625 67.07765625 -23.16015625 68.09765625 C-22.50015625 67.76765625 -21.84015625 67.43765625 -21.16015625 67.09765625 C-21.16015625 67.75765625 -21.16015625 68.41765625 -21.16015625 69.09765625 C-18.82939696 68.13900116 -18.82939696 68.13900116 -17.16015625 65.09765625 C-16.66515625 63.61265625 -16.66515625 63.61265625 -16.16015625 62.09765625 C-15.83015625 61.10765625 -15.50015625 60.11765625 -15.16015625 59.09765625 C-15.49015625 58.10765625 -15.82015625 57.11765625 -16.16015625 56.09765625 C-16.96453125 55.91203125 -17.76890625 55.72640625 -18.59765625 55.53515625 C-21.16015625 54.09765625 -21.16015625 54.09765625 -21.93359375 51.75 C-22.42787802 49.20336146 -22.84193619 46.67191403 -23.16015625 44.09765625 C-22.50015625 44.09765625 -21.84015625 44.09765625 -21.16015625 44.09765625 C-20.50015625 42.77765625 -19.84015625 41.45765625 -19.16015625 40.09765625 C-17.84015625 40.09765625 -16.52015625 40.09765625 -15.16015625 40.09765625 C-15.05703125 39.47890625 -14.95390625 38.86015625 -14.84765625 38.22265625 C-14.16015625 36.09765625 -14.16015625 36.09765625 -11.16015625 34.09765625 C-10.50015625 33.10765625 -9.84015625 32.11765625 -9.16015625 31.09765625 C-9.16015625 32.08765625 -9.16015625 33.07765625 -9.16015625 34.09765625 C-8.17015625 34.09765625 -7.18015625 34.09765625 -6.16015625 34.09765625 C-6.51078125 33.31390625 -6.86140625 32.53015625 -7.22265625 31.72265625 C-7.53203125 30.85640625 -7.84140625 29.99015625 -8.16015625 29.09765625 C-7.83015625 28.43765625 -7.50015625 27.77765625 -7.16015625 27.09765625 C-8.15015625 26.10765625 -8.15015625 26.10765625 -9.16015625 25.09765625 C-11.53401928 27.78803435 -13.05762976 29.75590127 -14.09765625 33.22265625 C-15.40592092 36.76266654 -16.81974685 37.51535706 -20.16015625 39.09765625 C-20.65515625 37.11765625 -20.65515625 37.11765625 -21.16015625 35.09765625 C-20.50015625 35.09765625 -19.84015625 35.09765625 -19.16015625 35.09765625 C-18.83015625 33.11765625 -18.50015625 31.13765625 -18.16015625 29.09765625 C-18.82015625 28.76765625 -19.48015625 28.43765625 -20.16015625 28.09765625 C-14.41015625 23.22265625 -14.41015625 23.22265625 -12.16015625 22.09765625 C-12.82015625 22.09765625 -13.48015625 22.09765625 -14.16015625 22.09765625 C-13.83015625 20.44765625 -13.50015625 18.79765625 -13.16015625 17.09765625 C-12.50015625 17.09765625 -11.84015625 17.09765625 -11.16015625 17.09765625 C-11.16015625 16.43765625 -11.16015625 15.77765625 -11.16015625 15.09765625 C-10.50015625 15.09765625 -9.84015625 15.09765625 -9.16015625 15.09765625 C-8.66515625 16.08765625 -8.66515625 16.08765625 -8.16015625 17.09765625 C-7.83015625 15.11765625 -7.50015625 13.13765625 -7.16015625 11.09765625 C-6.66515625 12.08765625 -6.66515625 12.08765625 -6.16015625 13.09765625 C-5.83015625 11.44765625 -5.50015625 9.79765625 -5.16015625 8.09765625 C-4.50015625 8.09765625 -3.84015625 8.09765625 -3.16015625 8.09765625 C-3.34578125 6.96328125 -3.53140625 5.82890625 -3.72265625 4.66015625 C-3.93921875 2.89671875 -3.93921875 2.89671875 -4.16015625 1.09765625 C-3.16015625 0.09765625 -3.16015625 0.09765625 0 0 Z " fill="#080603" transform="translate(526.16015625,144.90234375)"/>
<path d="M0 0 C2.75 2.25 2.75 2.25 5 5 C5.5775 5.70125 6.155 6.4025 6.75 7.125 C9.77718453 11.6657768 9.54560446 16.7525689 9 22 C5.79744424 30.07601018 -1.90870933 36.97710738 -9.8671875 40.42578125 C-19.00359534 42.88558336 -27.31130704 38.61720384 -35.171875 34.32421875 C-42.07019445 30.30361071 -48.34733674 25.21400994 -52 18 C-52.1875 14.1875 -52.1875 14.1875 -52 11 C-50.35 10.67 -48.7 10.34 -47 10 C-46.2265625 10.99 -46.2265625 10.99 -45.4375 12 C-44.633125 12.99 -43.82875 13.98 -43 15 C-42.54882812 15.61617188 -42.09765625 16.23234375 -41.6328125 16.8671875 C-36.15366788 23.87285997 -27.83538996 29.30171337 -19 31 C-18.97421875 30.42894531 -18.9484375 29.85789062 -18.921875 29.26953125 C-18.25775361 19.77561408 -16.24722706 9.45636778 -10 2 C-6.24952518 -0.50031654 -4.44143734 -0.53603554 0 0 Z " fill="#F4F4F4" transform="translate(1493,339)"/>
<path d="M0 0 C1.9375 0.5 1.9375 0.5 4 2 C4.68790422 4.69658452 4.81946464 7.2017019 5 10 C5.33 9.01 5.66 8.02 6 7 C8.475 7.495 8.475 7.495 11 8 C10.34 9.98 9.68 11.96 9 14 C8.34 14 7.68 14 7 14 C7.309375 14.5775 7.61875 15.155 7.9375 15.75 C8.92583364 17.84294184 9.5168613 19.74535275 10 22 C10.33 21.01 10.66 20.02 11 19 C11.66 19 12.32 19 13 19 C13.33 20.32 13.66 21.64 14 23 C14.66 22.67 15.32 22.34 16 22 C16 21.01 16 20.02 16 19 C16.66 18.01 17.32 17.02 18 16 C17.236875 16.350625 16.47375 16.70125 15.6875 17.0625 C13 18 13 18 10 17 C10 16.01 10 15.02 10 14 C10.66 14 11.32 14 12 14 C12.33 12.35 12.66 10.7 13 9 C13.763125 9.185625 14.52625 9.37125 15.3125 9.5625 C18.08967375 10.22819173 18.08967375 10.22819173 21 9 C21.33 10.32 21.66 11.64 22 13 C23.98 12.34 25.96 11.68 28 11 C28.33 9.35 28.66 7.7 29 6 C29.99 6.66 30.98 7.32 32 8 C31.38461538 14.52307692 31.38461538 14.52307692 29.4375 16.9375 C28.963125 17.288125 28.48875 17.63875 28 18 C27.505 16.02 27.505 16.02 27 14 C25.76500923 16.0659519 25.76500923 16.0659519 26.125 18.9375 C26 22 26 22 24.5 23.875 C24.005 24.24625 23.51 24.6175 23 25 C24.32 24.67 25.64 24.34 27 24 C27.33 22.68 27.66 21.36 28 20 C28.185625 20.9590625 28.185625 20.9590625 28.375 21.9375 C28.58125 22.618125 28.7875 23.29875 29 24 C29.66 24.33 30.32 24.66 31 25 C30.34 25.99 29.68 26.98 29 28 C29.66 28 30.32 28 31 28 C30.85691406 28.92232422 30.85691406 28.92232422 30.7109375 29.86328125 C30.60007812 30.67152344 30.48921875 31.47976562 30.375 32.3125 C30.25898438 33.11300781 30.14296875 33.91351563 30.0234375 34.73828125 C29.78466593 37.28723215 29.78466593 37.28723215 32 40 C32 41.32 32 42.64 32 44 C34.31 44.33 36.62 44.66 39 45 C40.3672866 49.51204577 39.79850532 52.66723719 38 57 C35.375 58.4375 35.375 58.4375 33 59 C32.67 58.67 32.34 58.34 32 58 C31.34 58.66 30.68 59.32 30 60 C27.9375 57.6875 27.9375 57.6875 26 55 C26.33 54.01 26.66 53.02 27 52 C27 52.66 27 53.32 27 54 C29.31 54.33 31.62 54.66 34 55 C33.67 54.34 33.34 53.68 33 53 C32.01 52.67 31.02 52.34 30 52 C29.67 51.01 29.34 50.02 29 49 C29.495 48.01 29.495 48.01 30 47 C28.02 46.34 26.04 45.68 24 45 C24 43.02 24 41.04 24 39 C23.34 39 22.68 39 22 39 C22 39.66 22 40.32 22 41 C20 40 20 40 19 39 C18.95907063 36.66702567 18.95758277 34.33294775 19 32 C18.34 32 17.68 32 17 32 C17.33 32.99 17.66 33.98 18 35 C16.68 35.99 15.36 36.98 14 38 C13.01 37.34 12.02 36.68 11 36 C12.65 34.35 14.3 32.7 16 31 C15.01 30.67 14.02 30.34 13 30 C13 31.32 13 32.64 13 34 C12.01 34 11.02 34 10 34 C9.67 34.99 9.34 35.98 9 37 C8.67 36.34 8.34 35.68 8 35 C7.34 35 6.68 35 6 35 C5.34 35.66 4.68 36.32 4 37 C3.67 35.68 3.34 34.36 3 33 C3.99 32.34 4.98 31.68 6 31 C6.72965366 28.43717258 6.72965366 28.43717258 7 26 C5.68 25.67 4.36 25.34 3 25 C3 22.69 3 20.38 3 18 C2.67 18.33 2.34 18.66 2 19 C1.34 19 0.68 19 0 19 C0.66 20.98 1.32 22.96 2 25 C1.01 25.33 0.02 25.66 -1 26 C-1 24.68 -1 23.36 -1 22 C-1.99 22 -2.98 22 -4 22 C-4.33 20.35 -4.66 18.7 -5 17 C-5.99 17.33 -6.98 17.66 -8 18 C-9.125 12.25 -9.125 12.25 -8 10 C-7.34 10 -6.68 10 -6 10 C-4.36323743 8.0399719 -4.36323743 8.0399719 -3 6 C-3 8.31 -3 10.62 -3 13 C-2.01 12.01 -1.02 11.02 0 10 C-0.33 11.65 -0.66 13.3 -1 15 C1.5986701 12.4013299 1.63249261 10.60157242 2 7 C1.67 6.01 1.34 5.02 1 4 C1.33 3.34 1.66 2.68 2 2 C1.34 2 0.68 2 0 2 C0 1.34 0 0.68 0 0 Z " fill="#16120A" transform="translate(472,155)"/>
<path d="M0 0 C1.93166016 0.01740234 1.93166016 0.01740234 3.90234375 0.03515625 C5.19269531 0.04417969 6.48304688 0.05320313 7.8125 0.0625 C8.81152344 0.07410156 9.81054688 0.08570313 10.83984375 0.09765625 C11.83984375 3.09765625 11.83984375 3.09765625 11.83984375 4.09765625 C12.31692121 6.09622397 12.83504188 8.08002603 13.375 10.0625 C14.38241821 13.83099033 15.08599173 17.15928864 14.83984375 21.09765625 C13.33423878 18.24355291 12.20767579 15.41640983 11.21484375 12.34765625 C10.82425781 11.14882812 10.82425781 11.14882812 10.42578125 9.92578125 C10.23242188 9.3225 10.0390625 8.71921875 9.83984375 8.09765625 C9.50984375 9.74765625 9.17984375 11.39765625 8.83984375 13.09765625 C9.49984375 13.42765625 10.15984375 13.75765625 10.83984375 14.09765625 C10.17984375 14.09765625 9.51984375 14.09765625 8.83984375 14.09765625 C9.16984375 15.41765625 9.49984375 16.73765625 9.83984375 18.09765625 C9.17984375 18.09765625 8.51984375 18.09765625 7.83984375 18.09765625 C7.83984375 18.75765625 7.83984375 19.41765625 7.83984375 20.09765625 C8.49984375 20.75765625 9.15984375 21.41765625 9.83984375 22.09765625 C11.18911085 25.02106831 11.83984375 26.84972941 11.83984375 30.09765625 C11.17984375 30.09765625 10.51984375 30.09765625 9.83984375 30.09765625 C9.17984375 28.11765625 8.51984375 26.13765625 7.83984375 24.09765625 C5.3671761 24.44210506 5.3671761 24.44210506 2.83984375 25.09765625 C2.50984375 25.75765625 2.17984375 26.41765625 1.83984375 27.09765625 C1.24171875 26.76765625 0.64359375 26.43765625 0.02734375 26.09765625 C-2.21402096 24.88977637 -2.21402096 24.88977637 -5.16015625 25.09765625 C-5.44890625 24.29328125 -5.73765625 23.48890625 -6.03515625 22.66015625 C-6.89278193 19.96500945 -6.89278193 19.96500945 -9.16015625 19.09765625 C-9.16015625 19.75765625 -9.16015625 20.41765625 -9.16015625 21.09765625 C-10.81015625 21.42765625 -12.46015625 21.75765625 -14.16015625 22.09765625 C-13.83015625 20.44765625 -13.50015625 18.79765625 -13.16015625 17.09765625 C-12.50015625 17.09765625 -11.84015625 17.09765625 -11.16015625 17.09765625 C-11.16015625 16.43765625 -11.16015625 15.77765625 -11.16015625 15.09765625 C-10.50015625 15.09765625 -9.84015625 15.09765625 -9.16015625 15.09765625 C-8.83015625 15.75765625 -8.50015625 16.41765625 -8.16015625 17.09765625 C-7.83015625 15.11765625 -7.50015625 13.13765625 -7.16015625 11.09765625 C-6.83015625 11.75765625 -6.50015625 12.41765625 -6.16015625 13.09765625 C-5.83015625 11.44765625 -5.50015625 9.79765625 -5.16015625 8.09765625 C-4.50015625 8.09765625 -3.84015625 8.09765625 -3.16015625 8.09765625 C-3.43859375 6.39609375 -3.43859375 6.39609375 -3.72265625 4.66015625 C-3.86703125 3.48453125 -4.01140625 2.30890625 -4.16015625 1.09765625 C-3.16015625 0.09765625 -3.16015625 0.09765625 0 0 Z " fill="#100D07" transform="translate(526.16015625,144.90234375)"/>
<path d="M0 0 C1.64540655 2.89444245 2.24885406 4.95608231 2.24050903 8.27740479 C2.24463303 9.54777588 2.24463303 9.54777588 2.24884033 10.84381104 C2.24164978 11.76450378 2.23445923 12.68519653 2.22705078 13.63378906 C2.22734283 14.60973022 2.22763489 15.58567139 2.22793579 16.59118652 C2.22654277 19.81608988 2.2109827 23.04076202 2.1953125 26.265625 C2.19158228 28.5019315 2.18873535 30.73823963 2.18673706 32.97454834 C2.17910137 38.86003126 2.15945333 44.74541546 2.1373291 50.63085938 C2.11686936 56.63670516 2.10773506 62.64256691 2.09765625 68.6484375 C2.07620746 80.43233504 2.0420722 92.21615931 2 104 C1.01 103.67 0.02 103.34 -1 103 C-1.58235447 78.61390666 -2.10504647 54.22628466 -2.17724609 29.83255005 C-2.18405744 27.78490794 -2.19428645 25.73727421 -2.20800781 23.68966675 C-2.22579927 20.8294859 -2.23016475 17.96960449 -2.23046875 15.109375 C-2.23761398 14.2709053 -2.24475922 13.43243561 -2.25212097 12.56855774 C-2.2342825 7.98069802 -1.75161971 4.3198231 0 0 Z " fill="#FBFBFA" transform="translate(1070,187)"/>
<path d="M0 0 C0.33 0.66 0.66 1.32 1 2 C1.66 2 2.32 2 3 2 C3.54466387 6.084979 4 9.8725485 4 14 C2.02 14.99 2.02 14.99 0 16 C-0.33 15.34 -0.66 14.68 -1 14 C-0.34 14 0.32 14 1 14 C0.67 13.34 0.34 12.68 0 12 C-0.99 12.66 -1.98 13.32 -3 14 C-3 12.02 -3 10.04 -3 8 C-3.99 9.485 -3.99 9.485 -5 11 C-5.66 10.67 -6.32 10.34 -7 10 C-7 12.64 -7 15.28 -7 18 C-5.68 17.34 -4.36 16.68 -3 16 C-3 17.98 -3 19.96 -3 22 C-2.01 22 -1.02 22 0 22 C0 23.32 0 24.64 0 26 C-0.99 26.33 -1.98 26.66 -3 27 C-4.20882096 29.00016466 -4.20882096 29.00016466 -5 31 C-5 29.35 -5 27.7 -5 26 C-5.66 26 -6.32 26 -7 26 C-6.979375 25.030625 -6.95875 24.06125 -6.9375 23.0625 C-6.64381501 20.12534105 -6.64381501 20.12534105 -8 19 C-8 20.98 -8 22.96 -8 25 C-8.66 25.33 -9.32 25.66 -10 26 C-10 23.69 -10 21.38 -10 19 C-11.49743119 20.49743119 -11.33202693 21.98824239 -11.5625 24.0625 C-11.706875 25.361875 -11.85125 26.66125 -12 28 C-12.99 27.01 -13.98 26.02 -15 25 C-15.66 25.33 -16.32 25.66 -17 26 C-17.33 25.01 -17.66 24.02 -18 23 C-18.66 23.99 -19.32 24.98 -20 26 C-20.625 23.125 -20.625 23.125 -21 20 C-20.34 19.34 -19.68 18.68 -19 18 C-18.01 18.99 -17.02 19.98 -16 21 C-16 20.34 -16 19.68 -16 19 C-16.66 19 -17.32 19 -18 19 C-18.33 18.01 -18.66 17.02 -19 16 C-21.01508358 15.26676204 -21.01508358 15.26676204 -23 15 C-16.14113988 8.01412395 -8.78640736 3.99950264 0 0 Z " fill="#231C0F" transform="translate(471,155)"/>
<path d="M0 0 C0.33 0 0.66 0 1 0 C1 3.3 1 6.6 1 10 C0.01 10 -0.98 10 -2 10 C-1.70802734 10.85851562 -1.70802734 10.85851562 -1.41015625 11.734375 C-0.9191826 14.44641994 -1.38747938 15.72995052 -2.4375 18.25 C-2.72496094 18.95640625 -3.01242187 19.6628125 -3.30859375 20.390625 C-3.53675781 20.92171875 -3.76492188 21.4528125 -4 22 C-3.01 22.33 -2.02 22.66 -1 23 C-0.67 23.66 -0.34 24.32 0 25 C0.66 24.67 1.32 24.34 2 24 C2 24.99 2 25.98 2 27 C2.66 27 3.32 27 4 27 C3.39301257 31.12751449 1.96189209 34.3321148 0 38 C-0.66 38 -1.32 38 -2 38 C-1.39009109 34.44219804 -0.4216319 31.3171411 1 28 C0.34 28 -0.32 28 -1 28 C-1.66 27.01 -2.32 26.02 -3 25 C-2.34 26.65 -1.68 28.3 -1 30 C-1.99 30.99 -2.98 31.98 -4 33 C-3.67 33.33 -3.34 33.66 -3 34 C-2.61393848 39.01879978 -3.02336147 41.90712202 -6 46 C-8 45 -8 45 -8.8515625 42.953125 C-12.22630579 31.15856764 -12.27230809 20.2497273 -7 9 C-4.95374314 5.74435941 -2.72293396 2.72293396 0 0 Z " fill="#1F190E" transform="translate(447,171)"/>
<path d="M0 0 C1.72590975 2.99981205 2.24642679 5.13603199 2.22705078 8.58496094 C2.22689972 9.48559265 2.22674866 10.38622437 2.22659302 11.31414795 C2.21627045 12.27782288 2.20594788 13.2414978 2.1953125 14.234375 C2.1924826 15.22753723 2.18965271 16.22069946 2.18673706 17.24395752 C2.17555143 20.41276144 2.15044962 23.58128165 2.125 26.75 C2.11496812 28.8997355 2.10584263 31.04947543 2.09765625 33.19921875 C2.07561741 38.46624246 2.04215584 43.73310096 2 49 C1.67 49 1.34 49 1 49 C0.67 36.46 0.34 23.92 0 11 C0 41.36 0 71.72 0 103 C-0.33 103 -0.66 103 -1 103 C-1.58235447 78.61390666 -2.10504647 54.22628466 -2.17724609 29.83255005 C-2.18405744 27.78490794 -2.19428645 25.73727421 -2.20800781 23.68966675 C-2.22579927 20.8294859 -2.23016475 17.96960449 -2.23046875 15.109375 C-2.23761398 14.2709053 -2.24475922 13.43243561 -2.25212097 12.56855774 C-2.2342825 7.98069802 -1.75161971 4.3198231 0 0 Z " fill="#E7E4E1" transform="translate(1070,187)"/>
<path d="M0 0 C0.66 0 1.32 0 2 0 C5.57413169 7.14826339 3.50619614 21.1038143 1.12109375 28.453125 C-1.00574476 33.28482783 -3.57050198 37.97033982 -7 42 C-7.99 42 -8.98 42 -10 42 C-9.48969238 37.53480834 -7.81765077 35.41533427 -5 32 C-3.25035785 28.33205191 -2.67054217 25.15304012 -2.40234375 21.11328125 C-2.32306641 20.01048828 -2.24378906 18.90769531 -2.16210938 17.77148438 C-2.08798828 16.63001953 -2.01386719 15.48855469 -1.9375 14.3125 C-1.78362969 12.0375084 -1.62625767 9.76275006 -1.46484375 7.48828125 C-1.36610962 5.98068237 -1.36610962 5.98068237 -1.26538086 4.44262695 C-1 2 -1 2 0 0 Z " fill="#EDEBE8" transform="translate(1080,89)"/>
<path d="M0 0 C2.44897847 3.67346771 2.31537716 5.66356399 2 10 C0 12 0 12 -3.9375 12.3125 C-6.43791894 12.23081662 -7.77205801 12.12109418 -10 10.9375 C-11.60318593 7.83132725 -11.42751128 5.42009021 -11 2 C-7.88980721 -1.98104677 -4.56233816 -1.18282841 0 0 Z " fill="#F8F7F6" transform="translate(1078,64)"/>
<path d="M0 0 C0.625 1.875 0.625 1.875 1 4 C0.34 4.66 -0.32 5.32 -1 6 C-0.67 6.66 -0.34 7.32 0 8 C-2 11 -2 11 -5 13 C-5.99 11.68 -6.98 10.36 -8 9 C-8.33 9.99 -8.66 10.98 -9 12 C-6.47211993 14.79872437 -4.79588866 16.45773019 -1 17 C-1.66 18.32 -2.32 19.64 -3 21 C-3.66 21 -4.32 21 -5 21 C-5.12375 21.639375 -5.2475 22.27875 -5.375 22.9375 C-5.58125 23.618125 -5.7875 24.29875 -6 25 C-6.66 25.33 -7.32 25.66 -8 26 C-8.33 23.36 -8.66 20.72 -9 18 C-9.99 18 -10.98 18 -12 18 C-11.814375 17.484375 -11.62875 16.96875 -11.4375 16.4375 C-10.81542258 13.81987245 -10.81542258 13.81987245 -11.6875 10.5 C-12 7 -12 7 -10.0625 4.5625 C-9.381875 4.046875 -8.70125 3.53125 -8 3 C-7.34 3.66 -6.68 4.32 -6 5 C-3.50447516 4.21869929 -3.50447516 4.21869929 -1 3 C-0.67 2.01 -0.34 1.02 0 0 Z " fill="#18130B" transform="translate(493,206)"/>
<path d="M0 0 C0.66 0.33 1.32 0.66 2 1 C1.91621094 1.62648437 1.83242188 2.25296875 1.74609375 2.8984375 C1.59333984 4.12433594 1.59333984 4.12433594 1.4375 5.375 C1.33308594 6.18710938 1.22867187 6.99921875 1.12109375 7.8359375 C0.81762672 10.04899186 0.81762672 10.04899186 2 12 C2.33 10.35 2.66 8.7 3 7 C3.66 7 4.32 7 5 7 C5.66 5.68 6.32 4.36 7 3 C7.33 3.99 7.66 4.98 8 6 C7.34 6 6.68 6 6 6 C6.33 7.65 6.66 9.3 7 11 C6.34 11 5.68 11 5 11 C5.226875 11.763125 5.45375 12.52625 5.6875 13.3125 C5.790625 14.199375 5.89375 15.08625 6 16 C4.5625 17.625 4.5625 17.625 3 19 C3 19.99 3 20.98 3 22 C3.66 21.34 4.32 20.68 5 20 C5.99 20.33 6.98 20.66 8 21 C7.690625 21.556875 7.38125 22.11375 7.0625 22.6875 C5.94238179 25.12540433 5.43962636 27.36224186 5 30 C4.67 29.34 4.34 28.68 4 28 C2.68 28.33 1.36 28.66 0 29 C-0.86733804 24.4898422 -1.28596844 22.00044477 1 18 C0.15111055 15.11508696 0.15111055 15.11508696 -1.08203125 13.13671875 C-2.23689874 10.44858037 -2.04135958 8.6988004 -1.6875 5.8125 C-1.58824219 4.93207031 -1.48898437 4.05164063 -1.38671875 3.14453125 C-1 1 -1 1 0 0 Z " fill="#251E11" transform="translate(502,149)"/>
<path d="M0 0 C0.71484375 2.16796875 0.71484375 2.16796875 1 5 C-0.43359375 7.67578125 -0.43359375 7.67578125 -2.4375 10.3125 C-3.09621094 11.19550781 -3.75492188 12.07851563 -4.43359375 12.98828125 C-5.20896484 13.98408203 -5.20896484 13.98408203 -6 15 C-7.65 14.67 -9.3 14.34 -11 14 C-11.75 11.875 -11.75 11.875 -12 9 C-8.98230953 3.41168431 -6.51900573 0 0 0 Z " fill="#141414" transform="translate(1492,355)"/>
<path d="M0 0 C0.66 1.32 1.32 2.64 2 4 C1.01 4.495 1.01 4.495 0 5 C0.33 6.32 0.66 7.64 1 9 C0.01 9.33 -0.98 9.66 -2 10 C-1.67 10.99 -1.34 11.98 -1 13 C-1.45548177 15.73812607 -2.25314753 18.3201176 -3 21 C-3.66 21 -4.32 21 -5 21 C-5.33 20.34 -5.66 19.68 -6 19 C-6.66 20.98 -7.32 22.96 -8 25 C-8.33 23.68 -8.66 22.36 -9 21 C-9.66 21 -10.32 21 -11 21 C-8.9071487 13.4903571 -5.62130724 5.62130724 0 0 Z " fill="#100D07" transform="translate(437,276)"/>
<path d="M0 0 C0.66 0.33 1.32 0.66 2 1 C2 1.99 2 2.98 2 4 C2.66 4.33 3.32 4.66 4 5 C3.01 6.485 3.01 6.485 2 8 C2.66 8 3.32 8 4 8 C3.90460938 8.61488281 3.80921875 9.22976562 3.7109375 9.86328125 C3.54464844 11.07564453 3.54464844 11.07564453 3.375 12.3125 C3.25898438 13.11300781 3.14296875 13.91351563 3.0234375 14.73828125 C2.78466593 17.28723215 2.78466593 17.28723215 5 20 C4.67 20.99 4.34 21.98 4 23 C1.525 22.01 1.525 22.01 -1 21 C-0.67 20.01 -0.34 19.02 0 18 C0 17.01 0 16.02 0 15 C-0.433125 15.495 -0.86625 15.99 -1.3125 16.5 C-3 18 -3 18 -6 18 C-6.66 18.33 -7.32 18.66 -8 19 C-8.33 15.37 -8.66 11.74 -9 8 C-8.34 7.67 -7.68 7.34 -7 7 C-6.67 9.31 -6.34 11.62 -6 14 C-5.01 14 -4.02 14 -3 14 C-3.33 11.36 -3.66 8.72 -4 6 C-3.34 6 -2.68 6 -2 6 C-2 5.34 -2 4.68 -2 4 C-1.34 4 -0.68 4 0 4 C0 2.68 0 1.36 0 0 Z " fill="#0A0804" transform="translate(499,175)"/>
<path d="M0 0 C0.33 0 0.66 0 1 0 C2.18553846 5.20648975 2.40098057 10.40569268 2.71875 15.72265625 C2.89773265 18.82862135 2.89773265 18.82862135 3.52734375 21.10546875 C4.13160851 23.52752173 4.09529 25.75795991 4.0625 28.25 C4.05347656 29.14203125 4.04445313 30.0340625 4.03515625 30.953125 C4.02355469 31.62859375 4.01195312 32.3040625 4 33 C-0.70967227 28.53481891 -1.72541336 23.32681984 -2.12890625 16.96875 C-2.28369061 11.10758236 -1.33144861 5.69432039 0 0 Z " fill="#FBCC6D" transform="translate(673,91)"/>
<path d="M0 0 C0.99 0.33 1.98 0.66 3 1 C3 1.66 3 2.32 3 3 C3.639375 3.2475 4.27875 3.495 4.9375 3.75 C7 5 7 5 7.75 7.125 C7.87375 8.053125 7.87375 8.053125 8 9 C7.01 9.33 6.02 9.66 5 10 C4.34 9.67 3.68 9.34 3 9 C3.309375 10.11375 3.309375 10.11375 3.625 11.25 C4.05626633 14.41261975 3.48978668 15.28333017 2 18 C2 19.32 2 20.64 2 22 C1.34 22 0.68 22 0 22 C-1 17.25 -1 17.25 -1 15 C-1.185625 14.030625 -1.37125 13.06125 -1.5625 12.0625 C-2 9 -2 9 -1 6 C-1 6.66 -1 7.32 -1 8 C-0.34 8 0.32 8 1 8 C0.67 5.36 0.34 2.72 0 0 Z " fill="#15110A" transform="translate(473,216)"/>
<path d="M0 0 C0 0.66 0 1.32 0 2 C-0.99 2.495 -0.99 2.495 -2 3 C-2.65213292 5.02463255 -2.65213292 5.02463255 -3 7 C-3.66 7 -4.32 7 -5 7 C-3.0745356 9.2236068 -3.0745356 9.2236068 0 10 C0.66 9.01 1.32 8.02 2 7 C2.66 7 3.32 7 4 7 C3.42415568 9.38564077 2.77772405 11.66682784 2 14 C2.33 14.99 2.66 15.98 3 17 C2.34 17.33 1.68 17.66 1 18 C0.67 17.34 0.34 16.68 0 16 C-0.66 16.33 -1.32 16.66 -2 17 C-2 15.35 -2 13.7 -2 12 C-2.66 12 -3.32 12 -4 12 C-4.33 13.65 -4.66 15.3 -5 17 C-6.97749439 14.03375841 -7.40230872 12.41537873 -8 9 C-8.33 8.01 -8.66 7.02 -9 6 C-8.34 5.01 -7.68 4.02 -7 3 C-6.67 3.33 -6.34 3.66 -6 4 C-5.34 3.67 -4.68 3.34 -4 3 C-4 2.34 -4 1.68 -4 1 C-2 0 -2 0 0 0 Z " fill="#261F11" transform="translate(487,162)"/>
<path d="M0 0 C1.4606285 2.64738916 2 3.89448334 2 7 C0.68 7.33 -0.64 7.66 -2 8 C-2 8.66 -2 9.32 -2 10 C-2.99 10.495 -2.99 10.495 -4 11 C-4 11.99 -4 12.98 -4 14 C-5.32 13.67 -6.64 13.34 -8 13 C-8.33 13.66 -8.66 14.32 -9 15 C-11.98514628 10.89542386 -12.2954439 8.02254631 -12 3 C-11.67 3.66 -11.34 4.32 -11 5 C-10.34 5 -9.68 5 -9 5 C-8.67 4.34 -8.34 3.68 -8 3 C-7.67 5.64 -7.34 8.28 -7 11 C-6.67 9.35 -6.34 7.7 -6 6 C-5.34 6.33 -4.68 6.66 -4 7 C-3.71125 6.401875 -3.4225 5.80375 -3.125 5.1875 C-2 3 -2 3 0 0 Z " fill="#040301" transform="translate(531,153)"/>
<path d="M0 0 C0.33 0 0.66 0 1 0 C1.97458597 8.72486487 0.46429586 14.21587157 -4.078125 21.69921875 C-6.08682311 24.10394067 -6.93824117 24.70872648 -10 25 C-9.48877304 20.52676412 -7.83334969 18.41668638 -5 15 C-2.15916057 10.19242559 -1.02455997 5.42414103 0 0 Z " fill="#F3F1EF" transform="translate(1080,106)"/>
<path d="M0 0 C0.33 2.31 0.66 4.62 1 7 C0.01 7.495 0.01 7.495 -1 8 C-1.33 7.34 -1.66 6.68 -2 6 C-2.99 6 -3.98 6 -5 6 C-5.33 6.99 -5.66 7.98 -6 9 C-6.61875 8.835 -7.2375 8.67 -7.875 8.5 C-9.96063386 7.92365356 -9.96063386 7.92365356 -12 8 C-12.66 6.68 -13.32 5.36 -14 4 C-12.42032193 3.32471777 -10.83608097 2.66010306 -9.25 2 C-8.36828125 1.62875 -7.4865625 1.2575 -6.578125 0.875 C-4 0 -4 0 0 0 Z " fill="#080603" transform="translate(472,257)"/>
<path d="M0 0 C1.72590975 2.99981205 2.24642679 5.13603199 2.22705078 8.58496094 C2.22689972 9.48559265 2.22674866 10.38622437 2.22659302 11.31414795 C2.21627045 12.27782288 2.20594788 13.2414978 2.1953125 14.234375 C2.1924826 15.22753723 2.18965271 16.22069946 2.18673706 17.24395752 C2.17555143 20.41276144 2.15044962 23.58128165 2.125 26.75 C2.11496812 28.8997355 2.10584263 31.04947543 2.09765625 33.19921875 C2.07561741 38.46624246 2.04215584 43.73310096 2 49 C1.67 49 1.34 49 1 49 C0.67 36.46 0.34 23.92 0 11 C-0.33 11 -0.66 11 -1 11 C-1.02688151 9.35425434 -1.04634123 7.70838587 -1.0625 6.0625 C-1.07410156 5.14597656 -1.08570313 4.22945312 -1.09765625 3.28515625 C-1 1 -1 1 0 0 Z " fill="#EFEDEB" transform="translate(1070,187)"/>
<path d="M0 0 C0.66 0.66 1.32 1.32 2 2 C2.99 2 3.98 2 5 2 C5 4.31 5 6.62 5 9 C5.99 9 6.98 9 8 9 C8.33 10.65 8.66 12.3 9 14 C8.01 14 7.02 14 6 14 C5.67 14.99 5.34 15.98 5 17 C4.67 16.34 4.34 15.68 4 15 C3.34 15 2.68 15 2 15 C1.34 15.66 0.68 16.32 0 17 C-0.33 15.68 -0.66 14.36 -1 13 C-0.01 12.34 0.98 11.68 2 11 C2.72965366 8.43717258 2.72965366 8.43717258 3 6 C1.68 5.67 0.36 5.34 -1 5 C-0.67 3.35 -0.34 1.7 0 0 Z " fill="#0F0C06" transform="translate(476,175)"/>
<path d="M0 0 C0.66 0 1.32 0 2 0 C2.33 1.65 2.66 3.3 3 5 C2.34 5 1.68 5 1 5 C0.67 6.65 0.34 8.3 0 10 C-0.66 9.67 -1.32 9.34 -2 9 C-2 8.34 -2 7.68 -2 7 C-2.66 7 -3.32 7 -4 7 C-3.67 7.99 -3.34 8.98 -3 10 C-3.99 10 -4.98 10 -6 10 C-6.33 11.32 -6.66 12.64 -7 14 C-5.68 13.67 -4.36 13.34 -3 13 C-3.99 13.99 -4.98 14.98 -6 16 C-6.99 15.67 -7.98 15.34 -9 15 C-8.05528846 6.8125 -8.05528846 6.8125 -6 4 C-4.67696283 3.6278958 -3.34262065 3.29369827 -2 3 C-1.34 2.01 -0.68 1.02 0 0 Z " fill="#231C10" transform="translate(519,153)"/>
<path d="M0 0 C0.75 1.6875 0.75 1.6875 1 4 C0.34 4.804375 -0.32 5.60875 -1 6.4375 C-3.33751328 8.83134089 -3.33751328 8.83134089 -2.75 11.8125 C-2.5025 12.534375 -2.255 13.25625 -2 14 C-2.66 14 -3.32 14 -4 14 C-4 13.34 -4 12.68 -4 12 C-6.99332739 12.9977758 -7.94766315 13.7522025 -10 16 C-11.53445094 12.93109813 -10.54984289 10.29905734 -10 7 C-7.66666667 7 -5.33333333 7 -3 7 C-3 5.68 -3 4.36 -3 3 C-2.01 3 -1.02 3 0 3 C0 2.01 0 1.02 0 0 Z " fill="#241D10" transform="translate(488,182)"/>
<path d="M0 0 C-0.375 2.9375 -0.375 2.9375 -1 6 C-1.99 6.495 -1.99 6.495 -3 7 C-3.40729228 9.32156597 -3.74438677 11.6568787 -4 14 C-5.33333333 14 -6.66666667 14 -8 14 C-8.05422947 12.5629191 -8.09289723 11.12524538 -8.125 9.6875 C-8.14820313 8.88699219 -8.17140625 8.08648437 -8.1953125 7.26171875 C-8 5 -8 5 -6 2 C-5.67 2.33 -5.34 2.66 -5 3 C-4.54625 2.505 -4.0925 2.01 -3.625 1.5 C-2 0 -2 0 0 0 Z " fill="#2E2615" transform="translate(444,187)"/>
<path d="M0 0 C0.99 0.33 1.98 0.66 3 1 C2.690625 2.0725 2.38125 3.145 2.0625 4.25 C0.99754459 7.73443742 0.99754459 7.73443742 0.625 10.3125 C0 12 0 12 -2 12.9375 C-2.66 13.288125 -3.32 13.63875 -4 14 C-4.81171228 16.55519921 -4.81171228 16.55519921 -5 19 C-6.125 17.3125 -6.125 17.3125 -7 15 C-6.125 12.25 -6.125 12.25 -5 10 C-4.34 10 -3.68 10 -3 10 C-3.061875 8.906875 -3.12375 7.81375 -3.1875 6.6875 C-3 3 -3 3 -1.5 1.0625 C-1.005 0.711875 -0.51 0.36125 0 0 Z " fill="#0D0B06" transform="translate(510,157)"/>
<path d="M0 0 C0.99 0.33 1.98 0.66 3 1 C2.67 2.32 2.34 3.64 2 5 C2.99 4.67 3.98 4.34 5 4 C5.66 5.32 6.32 6.64 7 8 C6.01 8.66 5.02 9.32 4 10 C3.67 9.34 3.34 8.68 3 8 C2.34 10.64 1.68 13.28 1 16 C-0.32 16.33 -1.64 16.66 -3 17 C-3 14 -3 14 -2 11 C-1.01 11 -0.02 11 1 11 C0.9278125 10.28972656 0.855625 9.57945312 0.78125 8.84765625 C0.6884375 7.92855469 0.595625 7.00945312 0.5 6.0625 C0.4071875 5.14597656 0.314375 4.22945312 0.21875 3.28515625 C0 1 0 1 0 0 Z " fill="#060502" transform="translate(481,194)"/>
<path d="M0 0 C1.65 0.33 3.3 0.66 5 1 C5 1.99 5 2.98 5 4 C5.66 4.33 6.32 4.66 7 5 C6.67 7.31 6.34 9.62 6 12 C5.01 11.01 4.02 10.02 3 9 C2.01 9.495 2.01 9.495 1 10 C0.67 9.01 0.34 8.02 0 7 C-0.66 7.99 -1.32 8.98 -2 10 C-2.625 7.125 -2.625 7.125 -3 4 C-2.34 3.34 -1.68 2.68 -1 2 C-0.01 2.99 0.98 3.98 2 5 C2 4.34 2 3.68 2 3 C1.34 3 0.68 3 0 3 C0 2.01 0 1.02 0 0 Z " fill="#272011" transform="translate(453,171)"/>
<path d="M0 0 C0.99 0.33 1.98 0.66 3 1 C2.67 3.31 2.34 5.62 2 8 C2.66 8.33 3.32 8.66 4 9 C3.67 7.68 3.34 6.36 3 5 C3.99 5.99 4.98 6.98 6 8 C5.1875 9.9375 5.1875 9.9375 4 12 C3.01 12.33 2.02 12.66 1 13 C-0.5625 11.75 -0.5625 11.75 -2 10 C-1.6875 8.0625 -1.6875 8.0625 -1 6 C-1 4.68 -1 3.36 -1 2 C-0.67 1.34 -0.34 0.68 0 0 Z " fill="#16120A" transform="translate(445,212)"/>
<path d="M0 0 C0.33 0.99 0.66 1.98 1 3 C1.66 3.33 2.32 3.66 3 4 C2.34 4 1.68 4 1 4 C1 4.99 1 5.98 1 7 C3.16906915 6.18708472 3.16906915 6.18708472 3.8125 4.0625 C5.39241741 1.31843292 7.0515206 0.93109876 10 0 C10.33 0.66 10.66 1.32 11 2 C9.7934375 3.175625 9.7934375 3.175625 8.5625 4.375 C6.01309583 6.71982856 6.01309583 6.71982856 5 9 C4.34 9 3.68 9 3 9 C2.34 10.32 1.68 11.64 1 13 C0.34 12.67 -0.32 12.34 -1 12 C-1 2 -1 2 0 0 Z " fill="#211B0F" transform="translate(452,185)"/>
<path d="M0 0 C0.33 0.66 0.66 1.32 1 2 C1.66 2 2.32 2 3 2 C3 2.66 3 3.32 3 4 C2.67 4.33 2.34 4.66 2 5 C4.12364481 5.22609337 4.12364481 5.22609337 5.625 3.5 C6.305625 2.7575 6.305625 2.7575 7 2 C6.67 4.31 6.34 6.62 6 9 C5.01 9.33 4.02 9.66 3 10 C3 9.34 3 8.68 3 8 C2.34 8 1.68 8 1 8 C0.67 9.98 0.34 11.96 0 14 C-0.33 14 -0.66 14 -1 14 C-1.02685938 11.85423363 -1.04633088 9.70837355 -1.0625 7.5625 C-1.07410156 6.36753906 -1.08570313 5.17257813 -1.09765625 3.94140625 C-1 1 -1 1 0 0 Z " fill="#292112" transform="translate(477,154)"/>
<path d="M0 0 C0.33 1.32 0.66 2.64 1 4 C2.32 3.67 3.64 3.34 5 3 C5.33 4.32 5.66 5.64 6 7 C5.01 7 4.02 7 3 7 C2.01 8.485 2.01 8.485 1 10 C1.33 10.66 1.66 11.32 2 12 C2.04022391 14.3329866 2.04320247 16.66706666 2 19 C1.33333333 17.66666667 0.66666667 16.33333333 0 15 C-0.61875 14.13375 -0.61875 14.13375 -1.25 13.25 C-2.47402291 9.57793126 -1.095361 6.65120335 0 3 C-0.66 3 -1.32 3 -2 3 C-2 2.34 -2 1.68 -2 1 C-1.34 0.67 -0.68 0.34 0 0 Z " fill="#261F11" transform="translate(503,180)"/>
<path d="M0 0 C0.99 0 1.98 0 3 0 C2.67 0.99 2.34 1.98 2 3 C2.99 3.33 3.98 3.66 5 4 C5.33 3.34 5.66 2.68 6 2 C5.74412595 3.77305664 5.46972261 5.54344608 5.1875 7.3125 C5.03667969 8.29863281 4.88585937 9.28476563 4.73046875 10.30078125 C3.96563295 13.12699269 3.24741238 14.1959128 1 16 C0.3125 13.75 0.3125 13.75 0 11 C1.4375 8.6875 1.4375 8.6875 3 7 C1.68 7.33 0.36 7.66 -1 8 C-1.125 2.25 -1.125 2.25 0 0 Z " fill="#131008" transform="translate(462,213)"/>
<path d="M0 0 C2 2 2 2 2.265625 4.49609375 C2.26046875 5.46675781 2.2553125 6.43742188 2.25 7.4375 C2.25515625 8.40558594 2.2603125 9.37367188 2.265625 10.37109375 C2 13 2 13 0 16 C-0.99 15.67 -1.98 15.34 -3 15 C-2.7834375 13.86111328 -2.7834375 13.86111328 -2.5625 12.69921875 C-2.2840625 11.20841797 -2.2840625 11.20841797 -2 9.6875 C-1.814375 8.70136719 -1.62875 7.71523437 -1.4375 6.69921875 C-0.92000204 3.96218195 -0.92000204 3.96218195 -1 1 C-0.67 0.67 -0.34 0.34 0 0 Z " fill="#030301" transform="translate(483,222)"/>
<path d="M0 0 C0.33 0 0.66 0 1 0 C1 1.65 1 3.3 1 5 C1.66 5 2.32 5 3 5 C3.28875 5.969375 3.5775 6.93875 3.875 7.9375 C4.64214682 11.10664203 4.64214682 11.10664203 7 12 C5.02 12.99 5.02 12.99 3 14 C2.67 12.02 2.34 10.04 2 8 C0.35 7.67 -1.3 7.34 -3 7 C-2.38722388 4.03824877 -1.74627478 2.61941217 0 0 Z " fill="#141109" transform="translate(504,214)"/>
<path d="M0 0 C0.33 0.66 0.66 1.32 1 2 C1.66 2 2.32 2 3 2 C3 4.31 3 6.62 3 9 C1.68 9.33 0.36 9.66 -1 10 C-1.33 11.32 -1.66 12.64 -2 14 C-4 12 -4 12 -5 9 C-3 7 -3 7 -1 6 C-0.34227572 2.97065509 -0.34227572 2.97065509 0 0 Z " fill="#1B160C" transform="translate(452,200)"/>
<path d="M0 0 C3 1 3 1 4 3 C4.66 2.67 5.32 2.34 6 2 C6 2.99 6 3.98 6 5 C6.66 5 7.32 5 8 5 C7.39301257 9.12751449 5.96189209 12.3321148 4 16 C3.34 16 2.68 16 2 16 C2.60990891 12.44219804 3.5783681 9.3171411 5 6 C4.34 6 3.68 6 3 6 C2.01 4.02 1.02 2.04 0 0 Z " fill="#251E10" transform="translate(443,193)"/>
<path d="M0 0 C2 1 2 1 2.6328125 2.84765625 C2.79523438 3.57855469 2.95765625 4.30945313 3.125 5.0625 C3.29257812 5.79597656 3.46015625 6.52945313 3.6328125 7.28515625 C3.75398438 7.85105469 3.87515625 8.41695312 4 9 C3.34 9 2.68 9 2 9 C1.67 9.99 1.34 10.98 1 12 C1 11.01 1 10.02 1 9 C-0.65 8.67 -2.3 8.34 -4 8 C-2.25 2.25 -2.25 2.25 0 0 Z " fill="#050402" transform="translate(479,212)"/>
<path d="M0 0 C0.90492188 0.02320313 1.80984375 0.04640625 2.7421875 0.0703125 C4.10730469 0.09738281 4.10730469 0.09738281 5.5 0.125 C6.19867187 0.14820313 6.89734375 0.17140625 7.6171875 0.1953125 C7.6171875 1.8453125 7.6171875 3.4953125 7.6171875 5.1953125 C6.9571875 4.8653125 6.2971875 4.5353125 5.6171875 4.1953125 C4.6271875 3.8653125 3.6371875 3.5353125 2.6171875 3.1953125 C2.6171875 2.5353125 2.6171875 1.8753125 2.6171875 1.1953125 C-0.3528125 3.6703125 -0.3528125 3.6703125 -3.3828125 6.1953125 C-4.0078125 4.3203125 -4.0078125 4.3203125 -4.3828125 2.1953125 C-2.3828125 0.1953125 -2.3828125 0.1953125 0 0 Z " fill="#231D10" transform="translate(512.3828125,145.8046875)"/>
<path d="M0 0 C0.625 1.875 0.625 1.875 1 4 C0.34 4.66 -0.32 5.32 -1 6 C-0.67 6.66 -0.34 7.32 0 8 C-2 11 -2 11 -5 13 C-5.33 11.35 -5.66 9.7 -6 8 C-5.34 8 -4.68 8 -4 8 C-4.33 6.68 -4.66 5.36 -5 4 C-4.0409375 3.8453125 -4.0409375 3.8453125 -3.0625 3.6875 C-2.381875 3.460625 -1.70125 3.23375 -1 3 C-0.67 2.01 -0.34 1.02 0 0 Z " fill="#131009" transform="translate(493,206)"/>
<path d="M0 0 C0.66 0.33 1.32 0.66 2 1 C2.3690205 10.41002278 2.3690205 10.41002278 0 15 C-3 11.25 -3 11.25 -3 9 C-2.34 8.34 -1.68 7.68 -1 7 C-1.33 6.01 -1.66 5.02 -2 4 C-2 3.34 -2 2.68 -2 2 C-1.34 2 -0.68 2 0 2 C0 1.34 0 0.68 0 0 Z " fill="#272011" transform="translate(474,172)"/>
<path d="M0 0 C2.475 0.99 2.475 0.99 5 2 C4.67 3.65 4.34 5.3 4 7 C3.67 6.34 3.34 5.68 3 5 C2.01 5 1.02 5 0 5 C-0.66 6.65 -1.32 8.3 -2 10 C-2.66 10 -3.32 10 -4 10 C-3.5205537 5.78087253 -2.83374881 3.20336822 0 0 Z " fill="#1C170C" transform="translate(455,216)"/>
<path d="M0 0 C2.43679946 3.65519918 2.11604695 4.98622509 1.4921875 9.125 C0.88185633 11.45007112 -0.03033205 12.62979621 -2 14 C-2.66 12.68 -3.32 11.36 -4 10 C-2.68 9.67 -1.36 9.34 0 9 C-0.66 8.34 -1.32 7.68 -2 7 C-2.33 6.01 -2.66 5.02 -3 4 C-2.34 4 -1.68 4 -1 4 C-0.67 2.68 -0.34 1.36 0 0 Z " fill="#020100" transform="translate(491,223)"/>
<path d="M0 0 C1.9375 0.8125 1.9375 0.8125 4 2 C4.33 2.99 4.66 3.98 5 5 C3.68 5.33 2.36 5.66 1 6 C0.67 7.98 0.34 9.96 0 12 C-0.66 11.67 -1.32 11.34 -2 11 C-3.50637312 4.85863268 -3.50637312 4.85863268 -1.5625 1.5625 C-1.046875 1.046875 -0.53125 0.53125 0 0 Z " fill="#1F1A0E" transform="translate(484,209)"/>
<path d="M0 0 C2 2 2 2 2 5 C2.66 5.33 3.32 5.66 4 6 C3.34 6 2.68 6 2 6 C2.33 7.32 2.66 8.64 3 10 C2.34 10 1.68 10 1 10 C0.34 10.66 -0.32 11.32 -1 12 C-1.99 11.67 -2.98 11.34 -4 11 C-4 10.01 -4 9.02 -4 8 C-2.68 7.67 -1.36 7.34 0 7 C-0.2784375 5.824375 -0.2784375 5.824375 -0.5625 4.625 C-1 2 -1 2 0 0 Z " fill="#18140B" transform="translate(533,153)"/>
<path d="M0 0 C1.4783226 2.95664519 1.06032783 5.74229737 1 9 C0.34 9 -0.32 9 -1 9 C-1 10.32 -1 11.64 -1 13 C-0.01 13.33 0.98 13.66 2 14 C1.01 14 0.02 14 -1 14 C-1 14.66 -1 15.32 -1 16 C-1.66 16 -2.32 16 -3 16 C-3.37952295 9.80112515 -2.8352113 5.5522888 0 0 Z " fill="#030301" transform="translate(475,208)"/>
<path d="M0 0 C0.33 1.32 0.66 2.64 1 4 C0.34 4 -0.32 4 -1 4 C-1.33 6.64 -1.66 9.28 -2 12 C-2.66 12 -3.32 12 -4 12 C-5.25 9.875 -5.25 9.875 -6 7 C-3.05263158 1.52631579 -3.05263158 1.52631579 0 0 Z " fill="#110D07" transform="translate(463,161)"/>
<path d="M0 0 C0.99 0.33 1.98 0.66 3 1 C3 1.99 3 2.98 3 4 C3.99 3.67 4.98 3.34 6 3 C6 4.65 6 6.3 6 8 C4.35 7.01 2.7 6.02 1 5 C0.34 5.66 -0.32 6.32 -1 7 C-2 6 -2 6 -2.0625 3.4375 C-2.041875 2.633125 -2.02125 1.82875 -2 1 C-1.34 0.67 -0.68 0.34 0 0 Z " fill="#0F0C06" transform="translate(450,170)"/>
<path d="M0 0 C0.33 2.31 0.66 4.62 1 7 C-0.98 7.99 -0.98 7.99 -3 9 C-3.33 6.36 -3.66 3.72 -4 1 C-2 0 -2 0 0 0 Z " fill="#0D0A06" transform="translate(511,270)"/>
<path d="M0 0 C1.5 1.375 1.5 1.375 3 3 C3 3.66 3 4.32 3 5 C2.34 5 1.68 5 1 5 C0.67 5.66 0.34 6.32 0 7 C0 6.01 0 5.02 0 4 C-0.66 4 -1.32 4 -2 4 C-2 5.65 -2 7.3 -2 9 C-4 8 -4 8 -4.6875 6.125 C-5 4 -5 4 -4 1 C-3.01 1.33 -2.02 1.66 -1 2 C-0.67 1.34 -0.34 0.68 0 0 Z " fill="#0E0B06" transform="translate(472,187)"/>
<path d="M0 0 C0.99 0.33 1.98 0.66 3 1 C3.33 2.98 3.66 4.96 4 7 C2.02 7.99 2.02 7.99 0 9 C-0.87890625 2.84765625 -0.87890625 2.84765625 -1 1 C-0.67 0.67 -0.34 0.34 0 0 Z " fill="#090704" transform="translate(445,284)"/>
<path d="M0 0 C0.33 0.66 0.66 1.32 1 2 C3.3260857 2.38063221 5.66055264 2.71269945 8 3 C8.66 3.33 9.32 3.66 10 4 C9.67 4.99 9.34 5.98 9 7 C8.01 6.67 7.02 6.34 6 6 C5.34 6.66 4.68 7.32 4 8 C0 3.375 0 3.375 0 0 Z " fill="#1C170D" transform="translate(498,207)"/>
<path d="M0 0 C2 3 2 3 1.8125 5.4375 C1 8 1 8 -2 12 C-2 8.37 -2 4.74 -2 1 C-1.34 0.67 -0.68 0.34 0 0 Z " fill="#130F08" transform="translate(494,222)"/>
<path d="M0 0 C0.33 0.66 0.66 1.32 1 2 C1.66 2 2.32 2 3 2 C3 3.32 3 4.64 3 6 C2.34 6 1.68 6 1 6 C0.67 7.65 0.34 9.3 0 11 C-1.125 9.4375 -1.125 9.4375 -2 7 C-1.125 3.25 -1.125 3.25 0 0 Z " fill="#0F0D07" transform="translate(439,182)"/>
<path d="M0 0 C1.65 0 3.3 0 5 0 C8 6.625 8 6.625 8 10 C7.34 10 6.68 10 6 10 C5.34 8.02 4.68 6.04 4 4 C3.01 4.495 3.01 4.495 2 5 C1.34 3.35 0.68 1.7 0 0 Z " fill="#151109" transform="translate(530,165)"/>
<path d="M0 0 C0.66 0.33 1.32 0.66 2 1 C1.9278125 1.59167969 1.855625 2.18335938 1.78125 2.79296875 C1.30089977 6.88261722 0.86689849 10.8738531 1 15 C-1.04418913 12.73980119 -1.97626803 11.55176835 -2.109375 8.45703125 C-1.99078125 7.58433594 -1.8721875 6.71164063 -1.75 5.8125 C-1.64171875 4.93207031 -1.5334375 4.05164063 -1.421875 3.14453125 C-1 1 -1 1 0 0 Z " fill="#322917" transform="translate(502,149)"/>
<path d="M0 0 C0.33 0 0.66 0 1 0 C1 3.96 1 7.92 1 12 C0.01 12 -0.98 12 -2 12 C-1.85904936 10.3745692 -1.71207913 8.74965949 -1.5625 7.125 C-1.48128906 6.22007813 -1.40007812 5.31515625 -1.31640625 4.3828125 C-1 2 -1 2 0 0 Z " fill="#FAF9F9" transform="translate(1080,106)"/>
<path d="M0 0 C0.99 0 1.98 0 3 0 C2.67 2.97 2.34 5.94 2 9 C0.68 8.67 -0.64 8.34 -2 8 C-1.34 5.36 -0.68 2.72 0 0 Z " fill="#020100" transform="translate(471,229)"/>
<path d="M0 0 C1.65 0 3.3 0 5 0 C4.45773019 3.79588866 2.79872437 5.47211993 0 8 C-0.33 7.01 -0.66 6.02 -1 5 C-0.34 5 0.32 5 1 5 C0.67 3.35 0.34 1.7 0 0 Z " fill="#030201" transform="translate(476,225)"/>
<path d="M0 0 C0.66 0.33 1.32 0.66 2 1 C2.625 4.0625 2.625 4.0625 3 7 C1.02 7.99 1.02 7.99 -1 9 C-1.80967438 6.08517222 -2.21845993 4.53886783 -1.0625 1.6875 C-0.711875 1.130625 -0.36125 0.57375 0 0 Z " fill="#0D0B06" transform="translate(450,189)"/>
<path d="M0 0 C0.33 1.32 0.66 2.64 1 4 C1.66 4 2.32 4 3 4 C3 4.66 3 5.32 3 6 C2.34 6 1.68 6 1 6 C0.67 7.65 0.34 9.3 0 11 C-1.125 9.4375 -1.125 9.4375 -2 7 C-1.125 3.25 -1.125 3.25 0 0 Z " fill="#120F08" transform="translate(440,205)"/>
<path d="M0 0 C1.32 0 2.64 0 4 0 C4.66 1.98 5.32 3.96 6 6 C4.35 6 2.7 6 1 6 C1 4.68 1 3.36 1 2 C0.34 1.67 -0.32 1.34 -1 1 C-0.67 0.67 -0.34 0.34 0 0 Z " fill="#120E08" transform="translate(507,249)"/>
<path d="M0 0 C0.99 0.33 1.98 0.66 3 1 C4.16552619 5.19589427 4.08954032 5.82091936 2 10 C1.34 6.7 0.68 3.4 0 0 Z " fill="#272011" transform="translate(436,202)"/>
<path d="M0 0 C1.42944945 2.35438733 2.08661261 3.48032433 1.625 6.25 C1.41875 6.8275 1.2125 7.405 1 8 C-0.65 7.67 -2.3 7.34 -4 7 C-4 6.01 -4 5.02 -4 4 C-3.01 4 -2.02 4 -1 4 C-0.67 2.68 -0.34 1.36 0 0 Z " fill="#0B0905" transform="translate(486,165)"/>
<path d="M0 0 C2.475 0.99 2.475 0.99 5 2 C4.34 3.32 3.68 4.64 3 6 C2.67 5.34 2.34 4.68 2 4 C0.68 4.33 -0.64 4.66 -2 5 C-2 2 -2 2 0 0 Z " fill="#1C170C" transform="translate(467,157)"/>
<path d="M0 0 C0.66 0.33 1.32 0.66 2 1 C1.67 3.97 1.34 6.94 1 10 C-2 7 -2 7 -3 4 C-2.34 3.67 -1.68 3.34 -1 3 C-0.67 2.01 -0.34 1.02 0 0 Z " fill="#1B160C" transform="translate(481,225)"/>
<path d="M0 0 C0.66 0 1.32 0 2 0 C3 3 3 3 2.25 5.125 C1 7 1 7 -2 8 C-2.125 5.625 -2.125 5.625 -2 3 C-1.34 2.34 -0.68 1.68 0 1 C0 0.67 0 0.34 0 0 Z " fill="#1B160C" transform="translate(498,215)"/>
<path d="M0 0 C3 3.75 3 3.75 3 6 C2.34 6 1.68 6 1 6 C0.67 6.66 0.34 7.32 0 8 C-0.99 7.01 -1.98 6.02 -3 5 C-2.01 3.35 -1.02 1.7 0 0 Z " fill="#18130B" transform="translate(455,225)"/>
<path d="M0 0 C1.485 0.99 1.485 0.99 3 2 C3 2.66 3 3.32 3 4 C4.32 4.33 5.64 4.66 7 5 C7 5.66 7 6.32 7 7 C4.03 6.505 4.03 6.505 1 6 C0.67 4.02 0.34 2.04 0 0 Z " fill="#120F08" transform="translate(494,202)"/>
<path d="M0 0 C2.0625 1.75 2.0625 1.75 4 4 C3.75 6.25 3.75 6.25 3 8 C1.68 7.67 0.36 7.34 -1 7 C-0.67 5.35 -0.34 3.7 0 2 C-0.66 1.67 -1.32 1.34 -2 1 C-1.34 0.67 -0.68 0.34 0 0 Z " fill="#0A0804" transform="translate(459,189)"/>
<path d="M0 0 C0.33 0 0.66 0 1 0 C2.25 7.625 2.25 7.625 0 11 C-1.76062164 7.67438135 -2.10784228 6.40826005 -1.125 2.6875 C-0.568125 1.3571875 -0.568125 1.3571875 0 0 Z " fill="#151109" transform="translate(504,151)"/>
<path d="M0 0 C0.99 0.33 1.98 0.66 3 1 C2.67 2.98 2.34 4.96 2 7 C1.01 6.34 0.02 5.68 -1 5 C-0.67 4.34 -0.34 3.68 0 3 C-0.66 2.67 -1.32 2.34 -2 2 C-1.34 2 -0.68 2 0 2 C0 1.34 0 0.68 0 0 Z " fill="#231D10" transform="translate(502,199)"/>
<path d="M0 0 C1.5625 1.25 1.5625 1.25 3 3 C2.6875 5.1875 2.6875 5.1875 2 7 C1.01 7 0.02 7 -1 7 C-1.04254356 5.00045254 -1.04080783 2.99958364 -1 1 C-0.67 0.67 -0.34 0.34 0 0 Z " fill="#221C0F" transform="translate(437,194)"/>
<path d="M0 0 C0.99 0 1.98 0 3 0 C2.1875 2.4375 2.1875 2.4375 1 5 C0.01 5.33 -0.98 5.66 -2 6 C-1.125 1.125 -1.125 1.125 0 0 Z " fill="#2D2514" transform="translate(510,146)"/>
<path d="M0 0 C0.99 0.33 1.98 0.66 3 1 C1.38405168 3.04119788 -0.2856382 5.04072937 -2 7 C-2.66 7 -3.32 7 -4 7 C-3.67 5.35 -3.34 3.7 -3 2 C-2.01 2 -1.02 2 0 2 C0 1.34 0 0.68 0 0 Z " fill="#0E0B06" transform="translate(456,271)"/>
<path d="M0 0 C0.99 0.33 1.98 0.66 3 1 C1.515 4.465 1.515 4.465 0 8 C-0.66 8 -1.32 8 -2 8 C-1.47731534 5.23723823 -0.89130413 2.6739124 0 0 Z " fill="#1C170D" transform="translate(447,201)"/>
<path d="M0 0 C0 1.65 0 3.3 0 5 C0.66 5.33 1.32 5.66 2 6 C1.01 6.495 1.01 6.495 0 7 C-0.99 6.67 -1.98 6.34 -3 6 C-3 4.35 -3 2.7 -3 1 C-1 0 -1 0 0 0 Z " fill="#100D07" transform="translate(492,175)"/>
<path d="M0 0 C0.99 1.32 1.98 2.64 3 4 C2.01 4.495 2.01 4.495 1 5 C0.34786708 7.02463255 0.34786708 7.02463255 0 9 C0 8.34 0 7.68 0 7 C-0.66 6.67 -1.32 6.34 -2 6 C-1.34 4.02 -0.68 2.04 0 0 Z " fill="#0B0905" transform="translate(524,168)"/>
<path d="M0 0 C1.98 0.495 1.98 0.495 4 1 C3.1875 3.4375 3.1875 3.4375 2 6 C1.01 6.33 0.02 6.66 -1 7 C-0.67 4.69 -0.34 2.38 0 0 Z " fill="#292112" transform="translate(506,169)"/>
<path d="M0 0 C0.33 0.99 0.66 1.98 1 3 C1.99 3 2.98 3 4 3 C3.67 3.99 3.34 4.98 3 6 C1.68 5.67 0.36 5.34 -1 5 C-0.67 3.35 -0.34 1.7 0 0 Z " fill="#141109" transform="translate(511,193)"/>
<path d="M0 0 C0.33 0.99 0.66 1.98 1 3 C1.66 3.33 2.32 3.66 3 4 C3 5.65 3 7.3 3 9 C2.67 8.34 2.34 7.68 2 7 C1.34 7 0.68 7 0 7 C0 4.69 0 2.38 0 0 Z " fill="#231D10" transform="translate(521,146)"/>
<path d="M0 0 C0.33 0.66 0.66 1.32 1 2 C0.34 1.67 -0.32 1.34 -1 1 C-0.67 0.67 -0.34 0.34 0 0 Z " fill="#BDB4AC" transform="translate(1062,29)"/>
<path d="" fill="#BDB4AC" transform="translate(0,0)"/>
</svg>
