<!--?xml version="1.0" encoding="utf-8"?-->
<!-- Generator: Adobe Illustrator 18.1.1, SVG Export Plug-In . SVG Version: 6.00 Build 0)  -->

<svg version="1.1" id="_x31_0" xmlns="http://www.w3.org/2000/svg" xmlns:xlink="http://www.w3.org/1999/xlink" x="0px" y="0px" viewBox="0 0 512 512" style="width: 32px; height: 32px; opacity: 1;" xml:space="preserve">
<style type="text/css">
	.st0{fill:#374149;}
</style>
<g>
	<path class="st0" d="M475.83,355.294c0.94-1.21,1.92-2.382,2.808-3.63c0.337-0.47,0.622-0.977,0.947-1.45
		c11.865-17.251,18.876-38.091,18.876-60.563V107.19C498.461,48.085,450.372,0,391.267,0H120.733
		C61.624,0,13.539,48.085,13.539,107.19v182.456c0,59.11,48.085,107.198,107.194,107.198H257.55L377.741,507.25
		c3.392,3.115,7.766,4.75,12.198,4.75c2.416,0,4.846-0.485,7.151-1.48c6.53-2.822,10.785-9.223,10.87-16.338l1.143-98.826
		c15.979-2.686,30.759-8.934,43.523-17.877c0.585-0.41,1.125-0.877,1.702-1.294c1.858-1.358,3.711-2.716,5.472-4.185
		c1.65-1.372,3.2-2.845,4.762-4.31c0.658-0.618,1.362-1.191,2.005-1.828c1.569-1.55,3.034-3.196,4.506-4.839
		c0.588-0.658,1.221-1.273,1.794-1.946C473.906,357.858,474.846,356.558,475.83,355.294z M137.832,262.613
		c0-7.525,6.098-13.622,13.618-13.622h113.584c7.521,0,13.622,6.097,13.622,13.622c0,7.522-6.101,13.619-13.622,13.619H151.451
		C143.93,276.232,137.832,270.134,137.832,262.613z M151.451,177.514h209.094c7.521,0,13.618,6.097,13.618,13.618
		c0,7.522-6.098,13.618-13.618,13.618H151.451c-7.521,0-13.618-6.097-13.618-13.618C137.832,183.61,143.93,177.514,151.451,177.514z
		 M360.545,133.273H151.451c-7.521,0-13.618-6.097-13.618-13.622c0-7.521,6.098-13.618,13.618-13.618h209.094
		c7.521,0,13.618,6.098,13.618,13.618C374.164,127.176,368.066,133.273,360.545,133.273z" style="fill: rgb(75, 75, 75);"></path>
</g>
</svg>
